<?xml version="1.0" encoding="utf-8"?>
<!-- Generator: Adobe Illustrator 26.1.0, SVG Export Plug-In . SVG Version: 6.00 Build 0)  -->
<svg version="1.1" id="Layer_1" xmlns="http://www.w3.org/2000/svg" xmlns:xlink="http://www.w3.org/1999/xlink" x="0px" y="0px"
	 width="128px" height="128px" viewBox="0 0 128 128" enable-background="new 0 0 128 128" xml:space="preserve">
<g id="b">
	<path fill-rule="evenodd" clip-rule="evenodd" fill="#FDFDF7" d="M73.34,27.66c-0.09-0.37-0.85-0.68-0.78-1.1
		c-0.41-0.26-1.44-1.72-1.94-2.13c-0.31-0.15-0.57-0.48-0.84-0.45l-0.06-0.13h-0.13v-0.07l-0.65-0.32l-0.06-0.13
		c-0.15,0.1-0.19-0.14-0.32-0.13l-0.07-0.07h-0.13v-0.06c-0.13-0.17-0.26-0.24-0.39-0.19l-0.06-0.13h-0.13v-0.07h-0.13l-0.06-0.06
		h-0.13l-0.07-0.06h-0.06l-0.06-0.07h-0.13l-0.13-0.13h-0.13c-0.09,0.09-0.13,0.07-0.13-0.06h-0.13v-0.06h-0.13l-0.13-0.13h-0.13
		c-0.09,0.09-0.13,0.06-0.13-0.07c-0.05,0-0.29,0.03-0.19-0.06c-0.12,0.03-0.28-0.06-0.39-0.06l-0.07-0.07h-0.13l-0.13-0.13h-0.13
		v-0.06h-0.13l-0.06-0.13h-0.13c-0.09,0.09-0.13,0.07-0.13-0.06h-0.13c-0.09,0.09-0.13,0.06-0.13-0.07c-0.1,0-0.28,0-0.26-0.06
		c-0.1,0-0.22-0.1-0.32-0.06l-0.06-0.13c-0.22,0-0.32-0.02-0.32-0.07h-0.13v-0.06c-0.09,0-0.44,0.04-0.26-0.13
		c-0.22,0-0.32-0.02-0.32-0.06h-0.19l-0.06-0.07c-0.1,0-0.27,0.02-0.26-0.13h-0.13c-0.09,0.09-0.13,0.06-0.13-0.07
		c-0.28-0.13-0.95-0.01-1.1-0.26h-0.07c-0.09,0.09-0.13,0.06-0.13-0.07c-0.22,0-0.34-0.02-0.39-0.06c-0.1,0-0.2,0-0.19-0.13H59.9
		c-0.09,0.09-0.13,0.06-0.13-0.06c-0.09-0.03-0.51-0.03-0.45-0.13c-0.22,0.04-0.34,0.02-0.39-0.07H58.8l-0.13-0.13h-0.45v-0.07
		c-0.22,0.04-0.37,0.02-0.45-0.06v-0.07c-0.22,0-0.32-0.02-0.32-0.06h-0.39v-0.06c-0.22,0-0.32-0.02-0.32-0.07
		c-0.07,0.02-0.2-0.02-0.26-0.06c-0.22,0.04-0.32,0-0.32-0.13c-0.22,0-0.32-0.02-0.32-0.06c-0.22,0.04-0.32,0.02-0.32-0.07h-0.13
		l-0.13-0.13c-0.22,0-0.34-0.02-0.39-0.06H54.8l-0.06-0.06c-0.11,0.03-0.22-0.07-0.32-0.07l-0.06-0.06h-0.13
		c-0.06-0.19-0.3-0.33-0.45-0.32c-0.73-0.65-1.29-1.16-1.68-1.55v-0.13c-0.51-0.19-0.71-1.3-1.16-1.55
		c-0.91-1.68-1.73-2.89-1.42-4.72h0.06c0-0.22,0.02-0.32,0.06-0.32c0.04-0.29,0.51-1.07,0.58-1.23c0.04,0.04,0.15,0.09,0.32,0.13
		l0.65,0.78c0.25-0.02,0.9,0.71,1.16,0.91h0.07l0.06,0.07h0.13v0.06h0.19c0,0.13,0.04,0.15,0.13,0.06c0.12,0.13,0.25,0.28,0.45,0.19
		V11h0.13l0.07,0.13h0.06l0.07,0.06h0.13l0.07,0.07c0.13,0,0.28,0.09,0.45,0.26c-0.08,0.07,0.07,0.07,0.13,0.07l0.07,0.13
		c0.18-0.02,0.35,0.12,0.52,0.13l0.06,0.13h0.13v0.06c0.13-0.03,0.26,0.09,0.39,0.07l0.06,0.06h0.13l0.06,0.07h0.19v0.13h0.13
		l0.07,0.07h0.13v0.13c0.13-0.03,0.26,0.09,0.39,0.06l0.06,0.06c0.11,0,0.26,0.1,0.39,0.07v0.06h0.13l0.07,0.13
		c0.08-0.02,0.24,0.08,0.32,0.06l0.06,0.07h0.13v0.13h0.13l0.06,0.06h0.13l0.06,0.06h0.13c-0.1,0.09,0.15,0.06,0.19,0.07l0.07,0.06
		h0.13l0.06,0.13H59l0.07,0.06h0.13v0.13h0.19v0.07h0.13l0.06,0.06h0.13v0.06h0.13c0.17,0.15,0.36,0.18,0.71,0.45v0.07
		c0.13-0.04,0.26,0,0.39,0.13c-0.18,0.23,0.43,0.03,0.45,0.39c0.13,0,0.28,0.09,0.45,0.26c0,0.04,0.15,0.13,0.45,0.26l0.06,0.13
		c0.23,0.04,0.67,0.33,0.84,0.58h0.13v0.07c0.23-0.13,0.59,0.5,0.78,0.45c0.24,0.36,0.93,0.69,1.29,0.97
		c0.26,0.46,1.26,0.97,1.75,1.29c0.36,0.33,1.91,2.23,2.52,2.65c0.36,0.88,1.09,1.57,1.68,2.39c0,0.13,0.06,0.28,0.19,0.45
		c0.5,0.32,0.6,1.19,1.1,1.49c0.09,0.33,0.68,1.19,0.71,1.68L73.34,27.66z M74.76,88.66c-0.1,0-0.09-0.92,0.06-0.97
		c0.1-1.59,1.23-2.55,2.59-2.98c-1.14,1.35-1.41,1.67-1.49,2.98l-0.06,0.07l0.06,0.06c0,0-0.06,0.17-0.06,0.39h-0.07
		c-0.15,0.44,0.05,0.73,0.07,1.1h-0.19v-0.06l-0.39-0.06c-0.09-0.26-0.26-0.43-0.52-0.52V88.66z M83.11,76.76
		c-0.07,0.1-0.89,0.55-0.91,0.84h-0.13c0.11,0.22-0.24,0.41-0.19,0.65h-0.06v0.13l-0.13,0.06v0.13c-0.13,0-0.15,0.04-0.07,0.13v0.13
		c-0.13,0-0.15,0.04-0.06,0.13v0.07l-0.13,0.06c0,0.22-0.14,0.43-0.13,0.65l-0.06,0.07v0.06c-0.13,0-0.15,0.04-0.06,0.13v0.13
		l-0.13,0.06c0,0-0.07,0.13-0.19,0.26c-0.38,1,0.76,3.32-1.36,3.11c-0.21-0.26,0.17-0.81,0.07-1.04h0.06v-0.91h0.06
		c0.12-1.86,0.22-4.06-0.65-5.69l-0.06,0.78l-0.06,0.07v0.13c-0.32,0.15-0.04,1.02-0.39,1.29c-0.78-0.71-1.71-1.34-2.13-2.07
		c-0.17-0.08-0.13-0.68-0.32-0.71c-0.43-1.92-1.83-5.4-1.81-6.86c0.13,0,0.17-0.09,0.13-0.26c0.01-0.04,0.08-0.21,0.06-0.26
		l0.06-0.07v-0.13h0.13V67.7c0,0,0.07-0.13,0.07-0.39c0.04,0,0.06-0.11,0.06-0.32c0.04,0,0.06-0.11,0.06-0.32
		c0.12,0.11,0.14-0.18,0.13-0.26h0.07c-0.03-0.13,0.09-0.26,0.06-0.39c0.13-0.04,0.17-0.15,0.13-0.32c0.04-0.06,0.08-0.18,0.06-0.26
		c0.09,0.06,0.08-0.37,0.13-0.45l0.06-0.06V64.8l0.13-0.13v-0.13c0.09,0,0.11-0.11,0.07-0.32c0.09,0,0.13-0.11,0.13-0.32l0.07-0.06
		c-0.03-0.11,0.07-0.22,0.06-0.32l0.07-0.07v-0.13l0.06-0.07v-0.13h0.06c0.09-0.09,0.11-0.26,0.07-0.52
		c-0.19-0.18-0.41-0.51-0.71-0.32c0.09-0.22,0.11-0.34,0.07-0.39c-2.46,1.58-3.97,3.81-6.53,3.88c-1.9-0.75,1.87-2.89,1.49-4.46
		c0.12-0.1,0.31-0.9,0.19-1.03c0.02-0.06,0.06-0.23,0.13-0.26c0.07,0,0.45,0.03,0.32-0.19c5.98-2.71,2.29-2.18-1.23-2.2v-0.06
		c-0.26-0.03-1.22,0.11-1.36-0.19h-0.13l-0.07-0.07h-0.13v-0.13h-0.13l-0.07-0.07h-0.13l-0.07-0.06h-0.06l-0.07-0.07h-0.13v-0.06
		c-0.22,0.17-0.3,0.39-0.26,0.65c-0.15,0.44,0.43,1.3,0.58,1.42v0.06c-0.32,0.29,0.04,0.73,0.19,1.04c0.22,0.09,0.32,0.41,0.32,0.97
		c-0.17,0-0.19,0.06-0.07,0.19v0.06l-0.13,0.07c-0.09,0.26-0.22,0.45-0.39,0.58c-0.22,0.4-0.92,1.11-1.23,1.16
		c-0.95,1.23-3.67,1.46-4.66,1.42c-0.04-0.04-0.19-0.06-0.45-0.06c-0.11-0.23-0.6-0.17-0.84-0.26c0-0.13-0.04-0.15-0.13-0.06
		c-0.12,0-0.17-0.15-0.32-0.13c-0.91-2.03-0.73-4.28-0.06-6.4c0.64-0.56,0.56-2.45,1.81-2.13c0.15,0.14,0.43,0.28,0.45,0.32
		l0.26-3.49c0,0,0.07-0.11,0.07-0.32c0.04,0,0.06-0.11,0.06-0.32c0.04,0,0.06-0.11,0.06-0.32h0.07l0.06-0.39
		c0.09-0.04,0.11-0.17,0.07-0.39c0.09,0.1,0.06-0.15,0.06-0.19l0.13-0.07c-0.02-0.35,0.17-0.71,0.19-1.03
		c0.13,0,0.15-0.04,0.06-0.13v-0.13l0.13-0.13v-0.13c0.11,0.08,0.05-0.56,0.07-0.65c0.36-0.69,0.76-1.45,0.84-2.07
		c0,0.04,0.02,0.04,0.06,0v-0.13l0.07-0.06v-0.13c0.13-0.04,0.19-0.15,0.19-0.32c0.4-1.47,1.47-0.33,2.46-0.39
		c0.64,0.3,2.12,0.71,2.98,0.65c0.17,0.17,0.39,0.11,0.65-0.19c-0.04-0.52-0.3-0.84-0.78-0.97c-0.09-0.13-0.19-0.17-0.32-0.13
		l-0.07-0.13h-0.13l-0.06-0.07h-0.13c0,0,0.04-0.06,0-0.06c-0.13-0.17-0.26-0.24-0.39-0.19l-0.07-0.07h-0.13
		c0.11-0.1-0.09-0.05-0.13-0.06c-0.12-0.14-0.22-0.34-0.39-0.26l-0.06-0.13h-0.13v-0.06c-0.13-0.13-0.26-0.17-0.39-0.13
		c-0.13-0.16-0.23-0.33-0.45-0.26V42.9c-0.13-0.17-0.26-0.24-0.39-0.19l-0.07-0.06h-0.13v-0.13h-0.13l-0.07-0.07h-0.13
		c0.07-0.11-0.3-0.28-0.39-0.26l-0.06-0.07c0,0-0.15-0.04-0.19-0.06c-0.09-0.17-0.19-0.24-0.32-0.19l-0.06-0.07H65.3l-0.07-0.06
		H65.1c-0.13-0.16-0.23-0.33-0.45-0.26v-0.13h-0.13l-0.07-0.07h-0.13c0,0,0.04-0.02,0-0.06h-0.13l-0.07-0.07h-0.13v-0.06h-0.13
		l-0.07-0.13h-0.13V40.9h-0.19c0.11-0.1-0.09-0.06-0.13-0.07l-0.07-0.13h-0.06c0.02-0.06-0.16-0.07-0.26-0.07l-0.06-0.06h-0.13V40.5
		h-0.13l-0.06-0.06h-0.13c0.01-0.15-0.16-0.13-0.26-0.13v-0.06h-0.13l-0.07-0.13c-0.13,0.03-0.26-0.09-0.39-0.06
		c0.04,0,0.04-0.02,0-0.07c-0.13,0.03-0.26-0.09-0.39-0.06c-0.02-0.19-0.37-0.15-0.52-0.19v-0.07h-0.13l-0.06-0.06h-0.13l-0.13-0.13
		H60.1v-0.06h-0.13l-0.07-0.07h-0.13c0,0,0.02-0.04-0.07-0.13h-0.06l-0.07-0.06h-0.13V39.1h-0.13l-0.07-0.07h-0.13l-0.13-0.13h-0.13
		v-0.06h-0.13l-0.06-0.06h-0.13l-0.13-0.13h-0.13l-0.06-0.07h-0.19v-0.06c-0.13,0.03-0.26-0.09-0.39-0.06v-0.07h-0.19v-0.13h-0.13
		l-0.06-0.06h-0.06l-0.07-0.13h-0.13l-0.06-0.06H56.8v-0.07c-0.13-0.13-0.26-0.17-0.39-0.13l-0.07-0.13h-0.13v-0.07h-0.13
		l-0.07-0.06h-0.13l-0.07-0.13h-0.06l-0.07-0.06h-0.13v-0.07h-0.13l-0.07-0.06h-0.13l-0.07-0.06h-0.06l-0.07-0.13h-0.13v-0.07H54.7
		v-0.13h-0.13c-0.12-0.14-0.23-0.26-0.45-0.19v-0.13h-0.13l-0.06-0.07h-0.07l-0.06-0.06h-0.13l-0.06-0.07h-0.13v-0.13h-0.13
		l-0.06-0.07h-0.13l-0.07-0.06h-0.06l-0.06-0.13h-0.13v-0.06c-0.37-0.14-0.93-0.53-1.23-0.78h-0.19v-0.13
		c-0.65-0.22-1.24-1.04-1.88-1.23c-0.17-0.17-0.28-0.26-0.32-0.26c-0.39-0.3-0.65-0.56-0.78-0.78h-0.13l-0.52-0.52
		c-0.23,0.06-0.4-0.29-0.52-0.32l-0.58-0.58h-0.13l-1.36-1.49h-0.13c-1.11-1.39-2.33-3.26-2.72-4.72h-0.06
		c0.04-0.32-0.21-0.83-0.19-1.16c0.13,0,0.15-0.04,0.07-0.13v-0.13c0.17,0.04,0.32,0.02,0.45-0.06v0.06h1.16v0.06l3.04,0.13
		l0.06,0.07c0,0,0.06-0.02,0.06-0.07c1.73,0.13,2.79-0.05,4.27,0.07v0.06l3.36,0.13v0.06h1.29v0.07h0.52v0.06l0.45,0.06
		c0.04,0.09,0.17,0.11,0.39,0.07c0,0.04,0.11,0.06,0.32,0.06c0,0.13,0.11,0.17,0.32,0.13c0,0.05,0.46,0.11,0.58,0.13
		c0,0.13,0.04,0.15,0.13,0.06h0.13v0.07h0.13l0.13,0.13h0.13c0,0.13,0.04,0.15,0.13,0.07h0.13c0,0.13,0.11,0.17,0.32,0.13
		c0.13,0.07,0.31,0.09,0.45,0.13c-0.02,0.07,0.24,0.07,0.32,0.07c0,0.09,0.02,0.11,0.06,0.06h0.13l0.07,0.13h0.13
		c0.04,0.09,0.09,0.11,0.13,0.06h0.13v0.07h0.13l0.13,0.13c0.13-0.03,0.26,0.09,0.39,0.06v0.06h0.13c0.09,0.09,0.13,0.11,0.13,0.07
		h0.13l0.07,0.06h0.13v0.13h0.19c0,0.09,0.02,0.11,0.06,0.06h0.13l0.06,0.13h0.13v0.07c0.13-0.03,0.26,0.09,0.39,0.06l0.06,0.06
		h0.06c0,0.13,0.07,0.15,0.19,0.07h0.13v0.13h0.13l0.07,0.06h0.06l0.06,0.06h0.13l0.07,0.13h0.13v0.07h0.13l0.07,0.06h0.13
		l0.07,0.13h0.06l0.07,0.06h0.13v0.07h0.19v0.06h0.13l0.07,0.13h0.06l0.07,0.06h0.13v0.07h0.19v0.13h0.13l0.07,0.07
		c0.13,0.01,0.25,0.23,0.39,0.13v0.06h0.13l0.06,0.13c0.34,0.13,0.87,0.56,1.1,0.84c0.57,0.07,1.31,0.96,1.68,1.36h0.13l1.49,1.68
		c0.28,0.57,0.93,1.21,1.42,1.81c1.36,1.79,2.13,4.6,2.85,6.86c0.35,1.05,0.57,3.33,1.94,3.69c0,0.13,0.04,0.15,0.13,0.07h0.06
		l0.07,0.06c0.1,0.03,0.23,0.31,0.39,0.19l0.06,0.13h0.07l0.06,0.06c0.13,0.01,0.25,0.23,0.39,0.13l1.75,1.68
		c0.02,0.21,0.31,0.45,0.45,0.71c0.29,0.05,0.39,0.8,0.65,0.84c0.34,0.46,1.1,1.9,1.04,2.07l-0.07,0.06
		c0.09,0.35,0.11,0.99,0.07,1.94c-0.04,0-0.07,0.11-0.07,0.32l-0.13,0.07v0.19c-0.1,0-0.06,0.14-0.06,0.19
		C81.97,53.29,82,53.48,82,53.62l-0.06,0.06v0.13l-0.07,0.06V54c-0.08-0.09-0.06,0.2-0.06,0.26h-0.06c0.04,0.3,0,0.67-0.13,1.1
		h-0.07v0.52h-0.06v0.52l-0.13,0.13v0.06c0,0-0.06,0.17-0.06,0.39l-0.07,0.07c0.34,0.79,1.3,0.22,1.36-0.52h0.13
		c0.08-0.44,0.63-0.67,0.65-1.04c0.34-0.34,0.56-0.63,0.65-0.84c0.17-0.04,0.24-0.13,0.19-0.26l0.06-0.06v-0.06l0.13-0.07l0.19-0.45
		c1.59-0.82,3.81-1.49,5.43-2.01c0.34,0.09,0.49,0,0.78-0.19l2.78,0.06c0,0,0.11,0.07,0.32,0.07v0.06c0.39-0.1,0.92,0.34,1.29,0.19
		V52h0.65c0,0.13,0.04,0.15,0.13,0.06h0.06l0.06,0.13l0.19-0.13l0.13,0.13c0.22,0,0.43,0.14,0.65,0.13c0.08,0.22,0.5,0.2,0.71,0.26
		v0.07h0.45l0.06,0.13c0.13-0.03,0.26,0.09,0.39,0.07c0.04,0.04,0.15,0.06,0.32,0.06l0.13,0.13c0.22,0,0.43,0.14,0.65,0.13v0.06
		c0.13,0.02,0.31,0.31,0.52,0.19v0.07h0.13l0.07,0.13h0.06l0.06,0.06h0.13l0.07,0.06c0.09-0.04,0.19,0,0.32,0.13
		c0.3,0.15,1,0.67,1.36,0.97c0.12,0.38,1.18,0.79,1.36,1.29h0.13c0.18,0.13,0.67,0.93,0.97,0.97c0.45,0.85,1.76,1.9,2.2,2.78
		c0.34,0.03,0.37,0.63,0.58,0.71c-0.04,0.11,0.36,0.39,0.26,0.52c0.26,0.17,0.37,0.34,0.32,0.52c0.23,0.03,0.45,0.86,0.65,0.91
		c1.46,3.24,2.7,8.35,2.2,11.26h-0.07c-0.09,0.35-0.04,0.8,0.13,1.36c-0.33,0.07-0.24,0.36-0.32,0.58
		c-0.03,0.21-0.21,0.73-0.26,0.97l-0.06,0.07v0.13l-0.13,0.06v0.13l-0.06,0.06v0.07l-0.07,0.06v0.13h-0.06v0.19h-0.06v0.13
		l-0.13,0.06v0.13H110v0.13c-0.13,0-0.45,0.57-0.52,0.65c-0.09,0.36-0.66,1.08-0.91,1.23c0.12,0.18-0.37,0.35-0.32,0.52
		c-0.22,0.19-0.62,0.44-0.58,0.78h-0.06v0.13l-0.07,0.07v0.13h-0.13v0.13l-0.06,0.07v0.13l-0.06,0.07v0.13h-0.13
		c0.06,0.15-0.05,0.33-0.19,0.45c0.03,0.17-0.42,0.34-0.39,0.52c-0.22,0.34-0.41,0.56-0.58,0.65c0.1,0.21-0.24,0.2-0.19,0.45
		c-0.34,0.35-0.62,0.56-0.84,0.65c-1.66,1.52-5.32,2.72-7.18,2.2v-0.06H97.4v-0.07c-5.72,1.58-9.74,1.92-15.27,2.85l-0.06-0.07
		L82,89.74c-0.52-0.04-1.75,0.13-3.69,0.52c-0.13-0.22-0.17-0.37-0.13-0.45l-0.13-0.13c0.41-2.38,3.7-4.42,6.47-4.4
		c0.74,0.78,0.6,1.03,1.16,1.23l0.13,0.13h0.06c-0.02,0.06,0.16,0.07,0.26,0.06l0.06,0.06h0.13v0.13h0.13l0.06,0.13
		c0.07-0.03,0.24-0.08,0.32-0.06c0.04,0.04,0.17,0.06,0.39,0.06v0.06h0.71c0.07,0.1,0.28,0.12,0.26,0l-0.07-0.06v-0.06l0.07-0.07
		c-0.04-0.13-0.13-0.17-0.26-0.13c-0.24-0.56-0.84-1.61-1.23-2.07c-0.58-1.23-1.03-2.8-1.23-4.46h0.06l0.19-3.49
		c0,0,0.07-0.13,0.07-0.39c0.13,0,0.15-0.04,0.06-0.13v-0.06l0.13-0.07c-0.03-0.13,0.09-0.26,0.06-0.39c0.13,0,0.15-0.04,0.07-0.13
		v-0.06l0.13-0.07c-0.07-0.29,0-0.35,0.13-0.52v-0.13c0.08,0.09,0.06-0.2,0.07-0.26c0.04,0.04,0.09,0.04,0.13,0
		c-0.03-0.13,0.09-0.26,0.06-0.39l0.06-0.06v-0.13h0.13v-0.13l0.07-0.06v-0.13h0.06V73.5l0.13-0.06v-0.13h0.06v-0.19
		c0,0,0.02,0.04,0.07,0v-0.13c0.15-0.14,0.28-0.32,0.32-0.52c0.32-0.38,1.03-1.02,1.03-1.42c0.55-0.32,1.14-1.08,1.68-1.42
		c-0.18-0.08-0.62,0.2-0.84,0.07c-0.16,0.12-0.47,0.02-0.65,0.13c-1.43,0.14-2.57,1.36-3.75,2.85c-0.34,0-0.56,0.22-0.65,0.65
		l-0.13,0.07v0.13h-0.06v0.13l-0.13,0.07v0.13l-0.06,0.07c-0.02,0.19-0.14,0.39-0.13,0.58l-0.07,0.07v0.13l-0.13,0.06
		c0.03,0.09-0.24,0.29-0.13,0.45l-0.13,0.13v0.19l-0.06,0.06v0.13c0,0-0.07,0.11-0.07,0.32l-0.13,0.06
		c0.03,0.13-0.09,0.26-0.06,0.39H83v0.32L83.11,76.76z M108.66,85.04c0.26-0.14,0.58-0.46,0.58-0.84l0.07-0.07V84l0.13-0.07V83.8
		h0.07l0.32-0.65c0,0,0.06,0.04,0.06,0c0.22-0.26,0.34-0.47,0.39-0.65h0.06v-0.19c0,0,0.02,0.04,0.06,0
		c-0.03-0.13,0.09-0.26,0.07-0.39c0.04,0,0.06-0.11,0.06-0.32l0.13-0.07v-0.06l0.06-0.06v-0.13l0.07-0.07v-0.13h0.13
		c0.17-0.13,0.22-0.28,0.13-0.45l0.07-0.07v-0.13c0.14,0.02,0.11-0.08,0.13-0.39c0.04,0,0.06-0.11,0.06-0.32h0.06V79.4
		c0.26-0.34,0.41-0.63,0.45-0.84l0.07-0.06v-0.13c0,0,0.06-0.11,0.06-0.32c0.04,0,0.06-0.11,0.06-0.32c0.13,0,0.17-0.11,0.13-0.32
		c0.04,0,0.07-0.11,0.07-0.32c0.13,0,0.17-0.11,0.13-0.32c0.04-0.06,0.08-0.18,0.07-0.26c0.04,0,0.06-0.11,0.06-0.32l0.07-0.06V76
		c0.5-0.27,1.36-0.96,2.01-0.91v-0.06c1.73-0.18,1.79,1.47,1.36,3.36c0,0.17-0.02,0.3-0.06,0.39c-0.04,0-0.06,0.09-0.06,0.26
		c-0.04,0.04-0.07,0.17-0.07,0.39h-0.06v0.13l-0.13,0.06v0.13c-0.13,0-0.15,0.04-0.06,0.13v0.13h-0.13
		c0.06,0.14-0.04,0.38-0.19,0.52v0.13h-0.07v0.19h-0.13v0.13l-0.06,0.06v0.07l-0.06,0.06v0.13l-0.13,0.13
		c0.06,0.24-0.61,0.94-0.65,0.97c-0.53,1.45-2.6,2.46-3.75,3.43c-0.37,0.28-1.27,0.23-1.55,0.39h-0.13l-0.06-0.06h-0.13V85.9
		c0.12,0.03,0.15-0.38,0.19-0.52c0.04,0,0.07-0.11,0.07-0.32L108.66,85.04z M67.71,50.95l-0.06-0.13h-0.06
		c-0.13,0.13-0.19,0.11-0.19-0.06h-0.19c-1.39-0.5-2.77,0.99-2.52,2.59h0.13c0.8-2.48,3.23,1.23,0.52,0.91v0.13
		c0.13,0,0.26,0.09,0.39,0.26c0.13,0,0.19,0.02,0.19,0.06h0.07l0.13,0.13h0.58c0,0,1.22-0.35,1.81-1.03
		c0.19,0.01,0.09-0.25,0.19-0.32c0.13-0.93-0.1-1.95-0.84-2.52h-0.13L67.71,50.95z M44.39,59.36c-0.1-0.06-0.24-0.13-0.23-0.26
		c-0.17-0.22-0.07-0.39,0.32-0.52l0.06,0.13h0.07l0.06,0.07c0,0,0.13,0,0.26,0.13c0.03,0.25,0.01,0.4-0.07,0.45
		c-0.04-0.01-0.34,0.06-0.39,0.07l-0.1-0.07L44.39,59.36z M82.66,60.52c0.22-0.22,0.34-0.45,0.39-0.71
		c-0.47,0.13-0.84,0.15-1.1,0.06c-1.71,0.5-3.53,2.91-4.2,4.72c1.61-0.37,3.11-2.29,4.33-3.56C82.21,60.9,82.4,60.73,82.66,60.52
		L82.66,60.52z"/>
	<path fill-rule="evenodd" clip-rule="evenodd" fill="#282828" d="M66.29,14.98c0.34,0.06,0.68,0.44,1.03,0.71
		c0.17-0.04,0.42,0.4,0.58,0.39l0.06,0.13c0.2,0.04,0.38,0.55,0.71,0.39v0.13c0.22,0.09,0.41,0.28,0.58,0.58
		c1.06,0.85,2.13,2.28,3.04,3.56c0.22,0.13,0.41,0.41,0.58,0.84c0.66,0.52,1,1.78,1.75,2.46c0.24,0.61,0.82,1.75,1.23,2.39
		l0.19,0.84c0.49,0.14,0.6,1.43,0.97,1.81l0.06,0.45c1.09,2.2,1.29,6.04,1.23,8.15h-0.06v0.71l0.52,0.07l0.06,0.13
		c4.15,1.94,5.98,4.4,7.57,7.7c0.56,0.92,0.6,1.7,0.65,3.3c0.17,0.17,0.32,0.19,0.45,0.06c2-0.64,3.78-1.06,5.82-1.03v0.06
		c0.23-0.01,1.05,0.28,1.36,0.06c0.09,0.04,0.41,0.07,0.97,0.07c0.04,0.04,0.17,0.06,0.39,0.06v0.07l0.45,0.06
		c0.03,0.06,0.45,0.13,0.58,0.13v0.06h0.13c0,0.13,0.11,0.17,0.32,0.13l0.06,0.06h0.13l0.06,0.07h0.13l0.07,0.13
		c0.13-0.04,0.26,0,0.39,0.13v0.07h0.13l0.06,0.06h0.13l0.06,0.13c0.1-0.08,0.27,0.12,0.39,0.26h0.13l0.06,0.06
		c0.1,0,0.22,0.1,0.32,0.06l0.06,0.07h0.13l0.13,0.13c0.13-0.02,0.32,0.22,0.45,0.13v0.13h0.13l0.06,0.07
		c0.1,0.02,0.29,0.25,0.45,0.13c0.04,0.17,0.24,0.35,0.58,0.52c0.03,0.18,0.35,0.4,0.65,0.39v0.13c0.16-0.07,0.39,0.07,0.45,0.26
		c0.13,0.01,0.25,0.23,0.39,0.13c0,0.13,0.04,0.15,0.13,0.07c0.09,0.04,0.24,0.13,0.45,0.26v0.13c0.26,0.09,0.45,0.22,0.58,0.39
		c0.47,0.09,1.24,0.89,1.62,1.23h0.06c0.73,0.63,2.31,2.41,3.11,3.49c0.18,0.07,0.39,0.72,0.65,0.84c0.04,0.11,0.38,0.29,0.32,0.52
		c1.92,2.85,3.3,6.58,3.36,10.22l-0.06,0.07c0,0,0.12,1.31,0,1.62h-0.07c0,0.41-0.3,1.26-0.06,1.49c0.57-0.18,1.8-0.36,2.2-0.19
		v0.13h0.19v0.07c1.4,0.68,2.09,2.74,1.94,4.53h-0.07v0.52h-0.06c0,0.31-0.17,0.68-0.19,0.97h-0.07l-0.06,0.39l-0.06,0.07v0.13
		c-0.05,0-0.11,0.46-0.13,0.58c-0.13,0-0.15,0.04-0.07,0.13c0,0.11-0.31,0.3-0.19,0.45l-0.13,0.06v0.19h-0.06
		c0.03,0.13-0.09,0.26-0.06,0.39l-0.07,0.06v0.13h-0.06v0.13l-0.13,0.06c-0.01,0.13-0.23,0.25-0.13,0.39h-0.13v0.13l-0.06,0.07v0.06
		c-0.21,0.44-1.02,1.63-1.23,1.62v0.19h-0.13c0.02,0.19-0.28,0.2-0.26,0.39c-1.25,0.87-1.77,1.94-3.04,2.2
		c-0.61,0.92-3.02,0.86-4.01,0.97c-0.76,0.76-1.16,1.13-1.81,1.62l-0.65,0.45c-0.2-0.04-0.41,0.44-0.65,0.32
		c-1.1,0.73-2.82,0.99-3.69,1.42c-0.85,0.1-2.8,0.65-3.49,0.65l-0.07-0.06l-0.06,0.06c-0.09-0.04-0.5-0.06-1.23-0.06v-0.07h-0.91
		v-0.06h-0.84v-0.07c-4.14-0.56-8.4,1.2-12.36,0.84v-0.07c-0.57-0.09-1.33,0.22-1.88,0.07c-0.36,0.28-1.03,0.11-1.23,0
		c-0.04,0.13-0.24,0.17-0.58,0.13v-0.06c-0.26-0.13-0.62-0.11-1.1,0.06c-0.75-0.12-2.18-1.13-3.3-0.78
		c-2.62,0.48-6.38-1.45-5.63-4.46c0.09-0.09,0.09-0.17,0-0.26c0.4-3.23,2.64-5.33,5.89-5.43c0.08-0.39,1.04-2.9,0.13-3.04
		c-0.22-0.26-0.35-0.5-0.39-0.71h-0.13c-0.32-0.6-0.74-1.6-1.16-2.01c-0.99-2-1.63-4.85-1.62-6.86h0.07l-0.07-0.07
		c0.02-0.53-0.09-1.94,0.19-2.39l-0.06-0.19c-1.13,0.33-2.72,0.86-3.62-0.26c-1.65-0.09-4.07,0.53-5.89-0.07l-0.06-0.06h-0.19v-0.06
		h-0.13l-0.13-0.13h-0.13v-0.07c-0.13-0.13-0.26-0.19-0.39-0.19c-0.15-0.15-0.38-0.26-0.52-0.26c-0.26-0.22-0.43-0.39-0.52-0.52
		h-1.29c0-0.13-0.04-0.15-0.13-0.06c-0.25,0.02-0.71-0.26-0.71-0.26v-0.13c-1.68-1.54-1.29-3.62,0.6-5.44
		c0.72-2.41,1.97-3.73,2.76-4.84h0.19c0.04-1.14,0.03-2.9,0.26-4.01c0.04,0,0.06-0.13,0.06-0.39h0.07v-0.39h0.06
		c0.09-0.09,0.11-0.26,0.06-0.52c0.04-0.06,0.08-0.18,0.07-0.26c0.04,0,0.06-0.11,0.06-0.32l0.13-0.13c0.2-1.87,1.02-3.56,1.88-5.18
		h-0.07l-0.06-0.13h-0.13v-0.06H62.6l-0.06-0.07h-0.13l-0.06-0.13h-0.13c0.1-0.09-0.15-0.06-0.19-0.06l-0.07-0.06h-0.13l-0.06-0.13
		c-0.1,0-0.22-0.1-0.32-0.07l-0.06-0.06h-0.13l-0.07-0.06h-0.06l-0.06-0.13c-0.13,0.03-0.26-0.09-0.39-0.07v-0.06h-0.13l-0.13-0.13
		c-0.22,0-0.43-0.14-0.65-0.13c0.08-0.07-0.07-0.07-0.13-0.06c0-0.13-0.04-0.15-0.13-0.06h-0.13l-0.06-0.13
		c-0.08,0.02-0.18-0.09-0.26-0.07c-0.15-0.17-0.34-0.33-0.58-0.26l-0.07-0.07h-0.13c0.11-0.1-0.09-0.05-0.13-0.06l-0.07-0.13
		c-0.13,0.03-0.26-0.09-0.39-0.06c0.11-0.1-0.09-0.06-0.13-0.07l-0.13-0.13H57.3l-0.06-0.07h-0.06c0.02-0.07-0.24-0.07-0.32-0.06
		c0.1-0.09-0.15-0.06-0.19-0.07l-0.06-0.06h-0.13c0.09-0.15-0.16-0.13-0.26-0.13c0-0.1-0.14-0.06-0.19-0.06
		c-0.06-0.19-0.29-0.33-0.45-0.26v-0.06h-0.13l-0.07-0.13h-0.13l-0.07-0.06h-0.06l-0.07-0.07h-0.13V39.6h-0.19v-0.13H54.6
		l-0.07-0.06H54.4c0,0,0.04-0.02,0-0.07h-0.13l-0.07-0.13h-0.13v-0.06c-0.13,0.03-0.26-0.09-0.39-0.06l-0.06-0.07h-0.13v-0.13
		c-0.68-0.17-0.71-0.49-1.23-0.52v-0.13h-0.19v-0.06h-0.13l-0.06-0.13h-0.07l-0.06-0.06h-0.13v-0.07h-0.19v-0.06
		c-0.13-0.13-0.26-0.19-0.39-0.19c-0.2-0.2-0.46-0.34-0.65-0.39c-0.04-0.13-0.22-0.24-0.52-0.32c0-0.09-0.15-0.19-0.45-0.32
		c-0.09-0.26-0.74-0.45-0.84-0.71h-0.06c-0.33-0.27-0.76-0.47-1.03-0.78c-0.24,0.05-0.38-0.4-0.58-0.39
		c-0.3-0.3-0.58-0.52-0.84-0.65c0.04-0.09,0.04-0.13,0-0.13c-0.56-0.53-1.22-1.28-1.68-1.49c0.11-0.01-1.23-1.13-1.16-1.49
		c-0.74-0.7-1.65-2.29-1.88-3.11c-0.78-1.31-1.07-2.99-0.84-4.4c0.09,0,0.11-0.11,0.07-0.32l0.13-0.06v-0.13h0.06v-0.19
		c0.34-0.43,0.82-0.71,1.42-0.84c0.09-0.09,0.26-0.15,0.52-0.19c0.04,0.28,0.65-0.05,0.84,0l0.07,0.13v-0.13
		c0.77,0.21,2.53,0.18,3.56,0.26v0.06h4.2c-0.09-0.22-0.3-0.43-0.65-0.65c-0.26-0.74-1.53-1.39-1.75-2.13
		c-0.74-0.57-1.25-2.59-1.62-3.11c-0.06-0.26-0.46-1.22-0.52-1.36c-0.5-2.12-1.15-4.2-0.91-6.34c-0.13-2.15,2.02-3.45,4.08-2.72
		l0.07,0.06h0.13l0.07,0.06h0.13c-0.16,0.14,0.14,0.13,0.26,0.13v0.07h0.13l0.06,0.06h0.13v0.06h0.13c0.02,0.32,0.74,0.46,0.71,0.78
		c0.47,0.47,0.78,0.71,0.91,0.71v0.13c0.12-0.02,0.32,0.22,0.45,0.13l0.06,0.07h0.13v0.13c0.13-0.03,0.26,0.09,0.39,0.07l0.07,0.06
		h0.13l0.13,0.13h0.07l0.06,0.06h0.13l0.06,0.07h0.13v0.06h0.13c-0.01,0.15,0.16,0.13,0.26,0.13L55,8.8h0.13v0.07h0.13
		c0,0.13,0.04,0.15,0.13,0.06l0.58,0.39h0.13l0.06,0.06c0.1,0,0.22,0.1,0.32,0.06l0.07,0.07h0.13v0.13
		c0.13-0.03,0.26,0.09,0.39,0.06c0,0.13,0.04,0.15,0.13,0.06h0.13l0.07,0.13h0.06l0.07,0.07h0.13l0.07,0.06h0.13l0.06,0.06h0.13
		l0.06,0.07h0.13l0.06,0.13h0.13c0,0.09,0.02,0.11,0.07,0.06h0.13l0.07,0.13h0.13l0.06,0.06h0.06l0.07,0.07
		c0.13-0.03,0.26,0.09,0.39,0.06l0.07,0.06h0.06l0.06,0.13h0.13v0.07h0.19v0.06c0.11,0,0.3,0.31,0.45,0.19l0.07,0.07
		c0.1,0,0.3,0.31,0.45,0.19c0.07,0.11,0.32,0.11,0.45,0.32c0.13-0.04,0.26,0.02,0.39,0.19V12h0.13l0.07,0.07h0.13v0.06h0.13
		l0.07,0.07h0.13v0.13c0.25-0.13,0.38,0.34,0.58,0.32c0.17,0.17,0.28,0.26,0.32,0.26v0.06h0.13l0.06,0.07h0.13
		c0.06,0.23,0.35,0.19,0.65,0.39c0,0.04,0.17,0.17,0.52,0.39c0,0.22,0.5,0.05,0.45,0.32h0.13l0.52,0.58c0.13-0.04,0.26,0,0.39,0.13
		v0.13L66.29,14.98z M50.18,8.7c0.09-0.11-0.31,0-0.26-0.19h-0.13V8.44c-0.22,0.04-0.32,0.02-0.32-0.06
		c-0.41-0.05-0.86-0.18-1.1,0.13c0.08,3.49,1.05,6.67,2.72,9.32h0.13c0.08,0.33,0.9,1.16,1.29,1.55v0.06l0.58,0.58v0.13
		c0.35,0.23,1.03,1.53,1.88,1.81c0.15,0.51,0.68,0.42,1.23,0.45v0.06h0.71v0.07c0.5-0.09,1.28,0.13,1.88,0.19
		c0.04,0.15,0.57,0.05,0.58,0.19c0.04,0.15,0.57,0.05,0.58,0.19c0.17,0,0.26,0.02,0.26,0.07c0.23-0.04,0.43,0.14,0.65,0.13
		l0.13,0.13h0.13l0.06,0.07h0.06l0.07,0.06h0.13l0.13,0.13h0.13c0.09-0.09,0.13-0.07,0.13,0.06c0.13-0.03,0.26,0.09,0.39,0.07v0.13
		c0.22,0,0.43,0.14,0.65,0.13v0.07H63l0.07,0.13h0.13c0.09-0.09,0.13-0.06,0.13,0.07c0.05,0,0.29-0.03,0.19,0.06h0.19
		c0,0,0.04,0.09,0,0.13h0.13l0.07,0.06h0.13v0.07c0.37,0.06,0.76,0.12,1.03,0.45h0.06l0.07,0.06h0.13l0.06,0.06h0.13v0.07h0.13
		l0.06,0.06h0.06l0.13,0.13h0.07l0.06,0.06h0.13v0.07h0.13l0.06,0.13h0.13l0.06,0.06h0.07l0.06,0.06h0.13c0,0,0.04,0.06,0,0.07h0.19
		v0.06c0.18-0.02,0.38,0.18,0.52,0.32c0.17-0.07,0.28,0.07,0.39,0.19c0.22-0.07,0.32,0.1,0.45,0.26c0.17,0.06,0.54,0.19,0.65,0.45
		c0.35-0.01,0.39,0.38,0.84,0.58c1.1,0.46,2.22,2.1,3.3,2.98c0,0.17,0.09,0.3,0.26,0.39c0.69,1.17,1.89,2.95,2.65,4.33
		c-0.29-2.58-1.45-6.02-2.72-7.89c-0.03-0.49-0.62-1.35-0.71-1.68c-0.5-0.3-0.6-1.17-1.1-1.49c-0.13-0.17-0.19-0.32-0.19-0.45
		c-0.59-0.82-1.32-1.52-1.68-2.39c-0.61-0.42-2.16-2.32-2.52-2.65c-0.48-0.32-1.48-0.83-1.75-1.29c-0.36-0.28-1.05-0.61-1.29-0.97
		c-0.18,0.05-0.54-0.58-0.78-0.45v-0.07h-0.13c-0.17-0.26-0.61-0.54-0.84-0.58l-0.06-0.13c-0.3-0.13-0.45-0.22-0.45-0.26
		c-0.17-0.17-0.32-0.26-0.45-0.26c-0.03-0.36-0.63-0.16-0.45-0.39c-0.13-0.13-0.26-0.17-0.39-0.13v-0.07
		c-0.35-0.27-0.54-0.31-0.71-0.45H59.7v-0.06h-0.13l-0.06-0.06h-0.13v-0.07h-0.19V13.6h-0.13l-0.07-0.06h-0.06l-0.06-0.13h-0.13
		l-0.07-0.06c0,0-0.29,0.03-0.19-0.07h-0.13l-0.06-0.06h-0.13l-0.06-0.06h-0.13v-0.13h-0.13l-0.06-0.07
		c-0.08,0.02-0.24-0.08-0.32-0.06l-0.07-0.13h-0.13v-0.06c-0.12,0.03-0.28-0.06-0.39-0.07l-0.06-0.06
		c-0.13,0.03-0.26-0.09-0.39-0.06v-0.13h-0.13l-0.07-0.07h-0.13v-0.13H55.9l-0.06-0.07h-0.13l-0.06-0.06
		c-0.13,0.03-0.26-0.09-0.39-0.07v-0.06h-0.13l-0.06-0.13c-0.17,0-0.34-0.15-0.52-0.13l-0.07-0.13c-0.06,0-0.21,0-0.13-0.07
		c-0.17-0.17-0.32-0.26-0.45-0.26l-0.07-0.07H53.7l-0.07-0.06h-0.06l-0.07-0.13h-0.13v-0.06c-0.2,0.08-0.33-0.07-0.45-0.19
		c-0.09,0.09-0.13,0.07-0.13-0.06H52.6v-0.06h-0.13l-0.06-0.07h-0.07c-0.26-0.2-0.92-0.92-1.16-0.91l-0.65-0.78
		c-0.17-0.04-0.28-0.09-0.32-0.13L50.18,8.7z M60.21,64.01c0,0.17,0.13,0.34,0.39,0.52c0.13-0.04,0.26,0.02,0.39,0.19v0.07h0.13
		l0.06,0.06h0.06l0.07,0.13h0.13l0.06,0.06c2.07,0.43,4.37,0.28,6.08-1.1c0.53-0.33,1.33-1.31,1.29-1.88l0.32-0.45v-0.13l0.06-0.06
		v-0.45h0.06c0-0.44,0.1-0.6,0.07-0.97c-0.42-0.07-0.55-0.44-0.84-0.39l-0.07-0.13c-0.6-0.29-0.67-0.44-0.45-0.91
		c1.81,0.97,4.09,0.1,6.02-0.39c-0.7,0.71-1.62,1.19-2.91,1.62c0.13,0.23-0.26,0.2-0.32,0.19c-0.06,0.03-0.11,0.2-0.13,0.26
		c0.12,0.14-0.08,0.93-0.19,1.03c0.38,1.57-3.39,3.71-1.49,4.46c2.56-0.07,4.08-2.3,6.53-3.88c0.09,0.04-0.08,0.46-0.19,0.58
		c0.07,0.16-0.07,0.39-0.26,0.45c-0.05,0.12-0.19,0.44-0.39,0.65c-0.13,0.42-0.85,1.15-1.29,1.42c-0.09,0.14-0.43,0.38-0.52,0.58
		c0,0.17-0.04,0.26-0.13,0.26c0,0.26-0.02,0.39-0.07,0.39c0.08,3.16,0.42,6.24,2.01,8.86c0.21,0.05,0.15,0.58,0.32,0.65
		c0.13,0.3,0.22,0.45,0.26,0.45c0.2,0.7,0.82,1.42,1.23,2.13h0.13c0.35,1.11,1.9,1.44,1.88-0.13c0.34-0.27,0.07-1.14,0.39-1.29
		v-0.13l0.06-0.07l0.06-0.78c0.87,1.63,0.77,3.84,0.65,5.69h-0.06v0.91h-0.06c0.07,0.92-0.27,1.67-1.16,1.81
		c-0.13,0-0.45,0.13-0.97,0.39c-1.36,0.42-2.49,1.39-2.59,2.98c-0.15,0.05-0.17,0.96-0.06,0.97c0,0.39,0.04,0.65,0.13,0.78
		c0.11,0.7,0.27,0.53,1.23,1.16l0.07,0.13h0.13v0.07c0.17-0.09,0.34-0.07,0.52,0.06c0.07-0.53-0.32-1.05-0.26-1.55
		c-0.04-0.04-0.06-0.26-0.06-0.65h0.06c0-0.22,0.02-0.34,0.07-0.39l0.06-0.71c0.13-0.04,0.17-0.11,0.13-0.19
		c0.65-0.69,1.12-1.21,1.42-1.55h0.13c0.14-0.35,0.83-0.5,0.97-0.78c0.88-0.63,3.53-1.35,4.4-1.29c-0.11-0.44-0.3-0.85-0.32-1.16
		h-0.13c-0.3-1.12-0.41-2.8-0.32-5.05h0.06c0.02-0.22,0.08-0.88,0.07-1.1h0.06c-0.03-0.13,0.09-0.26,0.06-0.39l0.13-0.06
		c0-0.22,0.02-0.32,0.07-0.32v-0.13l0.06-0.06v-0.19l0.13-0.13c-0.11-0.17,0.16-0.37,0.13-0.45l0.13-0.06v-0.13l0.07-0.07
		c0-0.19,0.11-0.39,0.13-0.58l0.06-0.07v-0.13l0.13-0.07v-0.13h0.06v-0.13l0.13-0.07c0.09-0.43,0.3-0.65,0.65-0.65
		c1.19-1.49,2.32-2.71,3.75-2.85c0.17-0.11,0.48-0.01,0.65-0.13c0.22,0.13,0.66-0.15,0.84-0.07c-0.54,0.34-1.13,1.1-1.68,1.42
		c0,0.41-0.72,1.04-1.03,1.42c-0.05,0.2-0.17,0.38-0.32,0.52v0.13c0,0-0.06,0.04-0.07,0v0.19h-0.06v0.13l-0.13,0.06v0.13h-0.06v0.13
		l-0.07,0.06v0.13h-0.13v0.13l-0.06,0.06c0.03,0.13-0.09,0.26-0.06,0.39c-0.04,0.04-0.09,0.04-0.13,0c0,0.06,0.02,0.35-0.07,0.26
		v0.13c-0.14,0.17-0.2,0.23-0.13,0.52l-0.13,0.07v0.06c0.09,0.09,0.06,0.13-0.07,0.13c0.03,0.13-0.09,0.26-0.06,0.39l-0.13,0.07
		v0.06c0.09,0.09,0.07,0.13-0.06,0.13c0,0.26-0.02,0.39-0.07,0.39l-0.19,3.49H85.6c0.2,1.67,0.65,3.23,1.23,4.46
		c0.39,0.46,0.99,1.51,1.23,2.07c0.13-0.04,0.22,0,0.26,0.13l-0.07,0.07v0.06l0.07,0.06c0.02,0.12-0.19,0.1-0.26,0h-0.71v-0.06
		c-0.22,0-0.35-0.02-0.39-0.06c-0.08-0.02-0.25,0.03-0.32,0.06l-0.06-0.13h-0.13v-0.13h-0.13l-0.06-0.06c-0.1,0-0.28,0-0.26-0.06
		h-0.06l-0.13-0.13c-0.56-0.2-0.42-0.45-1.16-1.23c-2.76-0.02-6.06,2.02-6.47,4.4l0.13,0.13c-0.04,0.09,0,0.24,0.13,0.45
		c1.97,2.5,5.95-0.16,9.38,0.58c1.05-0.2,4.21-1.03,7.12-0.91c0.14,0.23,0.49-0.12,0.58,0.06l0.06-0.06c0,0,0.04,0.02,0,0.06h0.58
		v0.07c0.82,0,1.32,0.04,1.49,0.13c0.26-0.13,0.58-0.15,0.97-0.07v0.07c0.22,0,0.34-0.04,0.39-0.13c1.17,0.26,3.09-0.45,4.33-1.16
		c0.72,0,1.33-0.92,2.01-1.29l0.26-0.45c0.22-0.09,0.32-0.17,0.32-0.26c0.13-0.04,0.3-0.17,0.52-0.39c0-0.09,0.26-0.39,0.78-0.91
		c0.28,0.13,0.37-0.41,0.65-0.19c0.13-0.04,0.17-0.11,0.13-0.19c0.21,0.03,0.49-0.51,0.71-0.39c0,0.12,0.02,0.61-0.07,0.58
		c-0.05,0.14-0.07,0.54-0.19,0.52v0.26h0.13l0.06,0.06h0.13c0.28-0.16,1.18-0.11,1.55-0.39c1.15-0.96,3.22-1.98,3.75-3.43
		c0.03-0.02,0.71-0.74,0.65-0.97l0.13-0.13v-0.13l0.06-0.06v-0.07l0.06-0.06v-0.13h0.13V80.6h0.07v-0.13
		c0.16-0.14,0.25-0.38,0.19-0.52h0.13v-0.13c-0.09-0.09-0.07-0.13,0.06-0.13v-0.13l0.13-0.06v-0.13h0.06c0-0.22,0.02-0.34,0.07-0.39
		c0-0.17,0.02-0.26,0.06-0.26c0.04-0.09,0.06-0.22,0.06-0.39c0.44-1.9,0.37-3.55-1.36-3.36v0.06c-0.64-0.05-1.51,0.64-2.01,0.91
		v0.13l-0.07,0.06c0,0.22-0.02,0.32-0.06,0.32c0.02,0.07-0.02,0.2-0.07,0.26c0.04,0.22,0,0.32-0.13,0.32c0,0.22-0.02,0.32-0.07,0.32
		c0.04,0.22,0,0.32-0.13,0.32c0,0.22-0.02,0.32-0.06,0.32c0,0.22-0.02,0.32-0.06,0.32v0.13l-0.07,0.06
		c-0.03,0.33-0.53,0.99-0.91,1.23c0,0.17-0.07,0.19-0.19,0.06l0.07-0.06c0-0.2-0.02-0.43-0.07-0.52c-0.22-0.2,0.35-0.75,0.19-0.97
		c0.14-0.05,0.13-0.36,0.13-0.52c0.18-0.04,0.09-0.57,0.19-0.65c0.19-1.55-0.14-2.26-0.07-3.36h0.07c0.5-2.9-0.74-8.03-2.2-11.26
		c-0.2-0.04-0.42-0.87-0.65-0.91c0.04-0.17-0.06-0.34-0.32-0.52c0.1-0.13-0.3-0.4-0.26-0.52c-0.21-0.08-0.25-0.68-0.58-0.71
		c-0.44-0.88-1.75-1.93-2.2-2.78c-0.3-0.04-0.79-0.84-0.97-0.97h-0.13c-0.18-0.5-1.24-0.91-1.36-1.29c-0.36-0.3-1.06-0.82-1.36-0.97
		c-0.13-0.13-0.24-0.17-0.32-0.13l-0.07-0.06h-0.13l-0.06-0.06h-0.06l-0.07-0.13h-0.13v-0.07c-0.21,0.12-0.38-0.17-0.52-0.19v-0.06
		c-0.22,0-0.43-0.14-0.65-0.13l-0.13-0.13c-0.17,0-0.28-0.02-0.32-0.06c-0.13,0.03-0.26-0.09-0.39-0.07l-0.06-0.13h-0.45v-0.07
		c-0.21-0.06-0.64-0.04-0.71-0.26c-0.22,0-0.43-0.14-0.65-0.13l-0.13-0.13l-0.19,0.13l-0.06-0.13h-0.06
		c-0.09,0.09-0.13,0.06-0.13-0.06h-0.65v-0.07c-0.37,0.15-0.9-0.3-1.29-0.19v-0.06c-0.22,0-0.32-0.02-0.32-0.07l-2.78-0.06
		c-0.28,0.19-0.44,0.28-0.78,0.19c-1.62,0.52-3.85,1.19-5.43,2.01c0.22-0.34,0.32-0.75,0.32-1.23l0.13-0.19v-0.65l-0.13-0.13
		c-0.09-5.17-2.62-9.02-7.44-11.13c-0.28,0.89,0,1.09-0.32,1.36c-0.07,0.85-0.41,1.43-0.78,2.07c-0.35-0.8-0.94-2.28-1.03-3.04
		c-0.71-2.26-1.49-5.07-2.85-6.86c-0.49-0.6-1.14-1.24-1.42-1.81l-1.49-1.68h-0.13c-0.37-0.4-1.11-1.29-1.68-1.36
		c-0.23-0.28-0.76-0.71-1.1-0.84l-0.06-0.13h-0.13v-0.06c-0.14,0.1-0.26-0.12-0.39-0.13l-0.07-0.07h-0.13v-0.13H65.8v-0.07h-0.13
		l-0.07-0.06h-0.06l-0.07-0.13h-0.13v-0.06h-0.19v-0.07h-0.13l-0.07-0.06h-0.06l-0.07-0.13h-0.13l-0.07-0.06h-0.13v-0.07h-0.13
		l-0.07-0.13h-0.13l-0.06-0.06h-0.06l-0.07-0.06h-0.13v-0.13h-0.13c-0.13,0.09-0.19,0.06-0.19-0.07h-0.06l-0.06-0.06
		c-0.13,0.03-0.26-0.09-0.39-0.06V26.3h-0.13l-0.06-0.13h-0.13c0,0-0.06,0.02-0.06-0.06h-0.19v-0.13h-0.13l-0.07-0.06h-0.13
		c0,0-0.04,0.02-0.13-0.07h-0.13v-0.06c-0.13,0.03-0.26-0.09-0.39-0.06l-0.13-0.13H61.2v-0.07h-0.13c0,0-0.09,0.02-0.13-0.06h-0.13
		l-0.07-0.13h-0.13c0,0-0.06,0.02-0.06-0.06c-0.09,0-0.34,0-0.32-0.07c-0.14-0.03-0.32-0.06-0.45-0.13c-0.22,0.04-0.32,0-0.32-0.13
		h-0.13c-0.09,0.09-0.13,0.06-0.13-0.07h-0.13l-0.13-0.13h-0.13v-0.07h-0.13c-0.09,0.09-0.13,0.07-0.13-0.06
		c-0.13-0.02-0.59-0.08-0.58-0.13c-0.22,0.04-0.32,0-0.32-0.13c-0.22,0-0.32-0.02-0.32-0.06c-0.22,0.04-0.34,0.02-0.39-0.07
		l-0.45-0.06v-0.06h-0.52v-0.07h-1.29v-0.06l-3.36-0.13v-0.06c-1.48-0.11-2.53,0.06-4.27-0.07c0,0.04-0.02,0.07-0.06,0.07
		l-0.06-0.07l-3.04-0.13v-0.06h-1.16v-0.06c-0.13,0.09-0.28,0.11-0.45,0.06v0.13c0.09,0.09,0.06,0.13-0.07,0.13
		c-0.01,0.34,0.24,0.85,0.19,1.16h0.06c0.39,1.46,1.61,3.33,2.72,4.72h0.13l1.36,1.49h0.13l0.58,0.58c0.11,0.04,0.29,0.38,0.52,0.32
		l0.52,0.52h0.13c0.13,0.22,0.39,0.47,0.78,0.78c0.04,0,0.15,0.09,0.32,0.26c0.64,0.19,1.23,1,1.88,1.23v0.13h0.19
		c0.3,0.25,0.86,0.63,1.23,0.78v0.06h0.13l0.06,0.13h0.06l0.07,0.06h0.13l0.06,0.07h0.13v0.13h0.13l0.06,0.07h0.13l0.06,0.06h0.07
		l0.06,0.07h0.13v0.13c0.22-0.06,0.33,0.05,0.45,0.19h0.13v0.13H55v0.07h0.13l0.07,0.13h0.06l0.07,0.06h0.13l0.07,0.06h0.13v0.07
		h0.13l0.07,0.06h0.06l0.07,0.13h0.13l0.07,0.06h0.13v0.07h0.13l0.07,0.13c0.13-0.04,0.26,0,0.39,0.13v0.07h0.13l0.06,0.06h0.13
		l0.07,0.13h0.06l0.06,0.06h0.13v0.13h0.19v0.07c0.13-0.03,0.26,0.09,0.39,0.06v0.06h0.19l0.06,0.07h0.13l0.13,0.13h0.13l0.06,0.06
		h0.13v0.06h0.13l0.13,0.13h0.13l0.07,0.07h0.13v0.06h0.13l0.07,0.06h0.06c0.09,0.09,0.11,0.13,0.07,0.13h0.13l0.07,0.07h0.13v0.06
		h0.13l0.13,0.13h0.13l0.06,0.06h0.13v0.07c0.15,0.04,0.5,0,0.52,0.19c0.13-0.03,0.26,0.09,0.39,0.06c0.04,0.04,0.04,0.06,0,0.07
		c0.13-0.03,0.26,0.09,0.39,0.06l0.07,0.13h0.13v0.06c0.1,0,0.27-0.02,0.26,0.13h0.13l0.06,0.06h0.13v0.07H63l0.06,0.06
		c0.1,0,0.28,0,0.26,0.07h0.06l0.07,0.13c0,0,0.24-0.04,0.13,0.07h0.19v0.06h0.13l0.07,0.13h0.13v0.06h0.13l0.07,0.07h0.13
		c0,0,0.04,0.06,0,0.06h0.13l0.07,0.07h0.13v0.13c0.22-0.07,0.32,0.1,0.45,0.26h0.13l0.07,0.06h0.06l0.06,0.07
		c0.13-0.04,0.24,0.02,0.32,0.19c0.04,0.02,0.15,0.08,0.19,0.06l0.06,0.07c0.09-0.02,0.46,0.15,0.39,0.26h0.13l0.07,0.07h0.13v0.13
		h0.13l0.07,0.06c0.13-0.04,0.26,0.02,0.39,0.19v0.07c0.22-0.07,0.32,0.1,0.45,0.26c0.13-0.04,0.26,0,0.39,0.13v0.06h0.13l0.06,0.13
		c0.17-0.08,0.27,0.12,0.39,0.26c0.04,0.01,0.24-0.04,0.13,0.06h0.13l0.07,0.07c0.13-0.04,0.26,0.02,0.39,0.19
		c0.04,0,0.04,0.02,0,0.06h0.13l0.06,0.07h0.13l0.07,0.13c0.13-0.04,0.24,0,0.32,0.13c0.47,0.13,0.73,0.45,0.78,0.97
		c-0.26,0.3-0.47,0.37-0.65,0.19c-0.86,0.06-2.34-0.34-2.98-0.65c-0.98,0.06-2.06-1.08-2.46,0.39c0,0.17-0.07,0.28-0.19,0.32v0.13
		l-0.07,0.06v0.13c0,0-0.06,0.04-0.06,0c-0.08,0.62-0.48,1.38-0.84,2.07c-0.01,0.09,0.04,0.73-0.07,0.65v0.13l-0.13,0.13v0.13
		c0.09,0.09,0.07,0.13-0.06,0.13c-0.02,0.32-0.22,0.69-0.19,1.03l-0.13,0.07c0,0,0.03,0.29-0.06,0.19c0.04,0.22,0.02,0.34-0.07,0.39
		l-0.06,0.39h-0.07c0,0.22-0.02,0.32-0.06,0.32c0,0.22-0.02,0.32-0.06,0.32c0,0.22-0.02,0.32-0.07,0.32l-0.26,3.49
		c0,0-0.31-0.18-0.45-0.32c-1.25-0.32-1.17,1.57-1.81,2.13c-0.67,2.13-0.84,4.37,0.06,6.4L60.21,64.01z M67.71,50.94h0.13
		c0.74,0.57,0.97,1.6,0.84,2.52c-0.1,0.07,0,0.34-0.19,0.32c-0.6,0.68-1.07,0.94-1.68,0.91l-0.13,0.13H66.1l-0.13-0.13H65.9
		c0,0-0.06-0.06-0.19-0.06c-0.13-0.17-0.26-0.26-0.39-0.26v-0.13c2.71,0.32,0.28-3.39-0.52-0.91h-0.13
		c-0.25-1.6,1.13-3.08,2.52-2.59h0.19c0,0.17,0.07,0.19,0.19,0.06h0.06l0.06,0.13L67.71,50.94z M36.14,56.89
		c0.09-0.09,0.15-0.17,0.19-0.26c0.1,0.11,0.06-0.09,0.07-0.13c0.13-0.04,0.39-0.26,0.78-0.65c0.41-0.19,1.29-0.67,1.68-0.97
		c0.71-0.28,2.95-0.5,3.88-0.39c0.07,0.15,0.61,0.05,0.78,0.13v0.06h0.13v0.07h0.45c-0.11,0.1,0.09,0.05,0.13,0.06
		c0,0.04,0.09,0.07,0.26,0.07v0.06h0.39l0.13,0.13c0.1,0,0.22,0.1,0.32,0.06v0.07c0.17,0,0.3,0.11,0.39,0.32
		c0.13,0.04,0.3,0.19,0.52,0.45c0.17,0,0.3-0.04,0.39-0.13c0.21-0.01,1.33,0,1.49,0.06c-0.1,0.09,0.15,0.06,0.19,0.06v0.07
		c0.13,0,0.26,0.06,0.39,0.19v0.06h0.13v0.07c0.18-0.08,0.33,0.09,0.39,0.26h0.13c0,0.22,0.04,0.35,0.13,0.39
		c0.07,0.23,0.32-0.12,0.32,0.06h0.13c0.13,0.07,0.91,0.68,1.1,0.91h0.13c0.16,0.64,0.87,0.89,0.84,1.94
		c0.16,0.33-0.01,1.31-0.06,1.68c-0.11,0.03-0.22-0.07-0.32-0.06v-0.07c-1.39,0-0.99,0.06-1.94,0.78v0.07l-1.16,1.1v0.13l-0.07,0.07
		c0,0,0.15,0.22,0.45,0.52v0.13l0.52,0.45c-0.04,0.17-0.17,0.37-0.39,0.58c-0.33,0.91-2.62,0.98-3.36,0.97
		c0-0.04-0.09-0.06-0.26-0.06l-0.06-0.07h-0.06v-0.06L44.77,66c-0.08,0.17-0.43,0.58-0.39,0.78l-0.06,0.07v0.13h-0.07v0.52h-0.06
		c-0.21,2.12,0.66,3.16,0.45,5.76h-0.07l-0.19,1.81h-0.06v0.52h-0.07v0.39h-0.06v0.32c-0.13,0-0.15,0.04-0.07,0.13v0.13l-0.13,0.06
		c0.03,0.11-0.07,0.22-0.07,0.32L43.86,77v0.13h-0.07v0.13h-0.06v0.13l-0.06,0.06v0.07l-0.07,0.06v0.06c-0.13,0-0.15,0.04-0.06,0.13
		v0.13h-0.13v0.13l-0.06,0.06v0.13h-0.07v0.13h-0.06v0.13l-0.07,0.06c0.09,0.33-0.57,0.4-0.45,0.71l-0.07,0.07
		c0.03,0.33-0.47,0.47-0.52,0.78h-0.13c0,0-0.19,0.26-0.58,0.65v0.13c-0.51,0.35-1.33,1.32-2.01,1.94
		c-0.17,0.27-0.39,0.63-0.65,0.91h-0.06c0.12,0.19-0.22,0.43-0.26,0.58c-0.26,0.26-0.39,0.41-0.39,0.45
		c-0.37,0.01-0.39,0.69-0.52,0.91l-0.07,0.06v0.13h-0.06v0.13l-0.07,0.06v0.07l-0.06,0.06v0.07l-0.06,0.06v0.06
		c-0.13,0-0.15,0.04-0.07,0.13v0.13l-0.06,0.06v0.07l-0.13,0.06v0.13h-0.06v0.13H36.8c0.03,0.11-0.07,0.22-0.06,0.32l-0.07,0.06
		v0.13h-0.06v0.13h-0.13v0.13l-0.06,0.06v0.06l-0.07,0.07v0.13h-0.06v0.13h-0.06v0.13l-0.07,0.07v0.06l-0.06,0.06v0.13l-0.07,0.07
		v0.13h-0.06v0.13l-0.13,0.07v0.06c0.54,0.03,1.15,0.22,1.68,0.06c0.09-0.09,0.13-0.15,0.13-0.19c0.2,0.13,0.52-0.13,0.65-0.06h1.1
		v0.06h0.32l0.07,0.07h0.06c0.04,0.12,0.29,0.14,0.45,0.13l0.06,0.13c0.2-0.05,0.91,0.72,0.91,0.65v0.07h0.13
		c0.03,0.22,0.29,0.56,0.58,0.84c-0.04,0.26-0.02,0.6,0.07,1.03l-0.07,0.07v0.13h-0.06v0.13c-0.6,0.68-1.86,0.48-2.39,0.52v-0.06
		c-0.95-0.09-1.75-0.06-2.39,0.06c0-0.04-0.11-0.06-0.32-0.06c-0.04,0.09-0.19,0.11-0.45,0.06v-0.06c-0.26-0.09-0.45-0.06-0.58,0.06
		c-2.97,0-2.73,0.05-4.53,0.13c0.09-0.09-0.11-0.15-0.19-0.13c0-0.13-0.04-0.19-0.13-0.19c-0.09-0.09-0.19-0.13-0.32-0.13
		c-0.17-0.22-0.26-0.75-0.26-1.62c0.04,0,0.07-0.13,0.07-0.39l-0.39-0.26V90.2c-0.24,0.06-0.35-0.3-0.58-0.19v-0.07h-0.13
		c-0.04-0.17-0.15-0.34-0.32-0.52c-0.07-0.17-0.11-0.85-0.13-1.03h0.06c0.09-0.3,0.17-0.47,0.26-0.52c0.36-0.77,2.08-0.15,2.07-1.29
		c0.04-0.04,0.04-0.09,0-0.13v-0.07l0.13-0.13v-0.13l0.06-0.07v-0.06l0.06-0.06c0.02-0.17,0.11-0.35,0.13-0.52l0.07-0.06v-0.06
		h-0.13v-0.07c-1-0.09-2.38-0.09-3.36-0.06v-0.07c-0.09,0.04-0.19,0.17-0.32,0.39h-0.19c-0.05,0.35-0.55,0.96-0.91,1.16v0.13
		l-0.13,0.06c-0.19,0.46-1.01,0.9-1.23,1.55c-0.25,0.04-0.54,0.49-0.71,0.58v0.13c-0.8,1-1.79,1.39-2.85,1.1
		c0-0.05-0.46-0.11-0.58-0.13c0-0.04-0.09-0.06-0.26-0.06l-0.07-0.07h-0.13v-0.06h-0.13v-0.13h-0.13l-0.07-0.06h-0.06
		c-0.11-0.12-0.22-0.26-0.39-0.19c-0.32-0.1-0.31-0.56-0.65-0.45l-0.45-0.52h-0.13v-0.07c-0.15,0.18-0.46,0-0.65,0v-0.06
		c-0.31,0.05-0.69-0.09-0.97-0.13c0-0.1-0.14-0.06-0.19-0.06l-0.13-0.13h-0.06c-0.18-0.15-0.5-0.21-0.52-0.32
		c-0.62-0.14-0.85-0.76-1.29-1.1c-0.16-1.04-1.66-1.77-1.03-2.98h-0.06c0-0.1,0.1-0.22,0.06-0.32l0.06-0.07v-0.13l0.07-0.06
		c-1-0.03-0.92-2.11-0.78-2.52c-0.29-0.05-0.05-0.59,0-0.71c0.09,0,0.11-0.09,0.06-0.26c0.04-0.06,0.08-0.18,0.07-0.26
		c0.04,0.04,0.06,0.02,0.06-0.07c0.13-0.09,0.17-0.19,0.13-0.32l0.06-0.06v-0.13c0.17-0.08,0.32-0.49,0.84-0.52
		c0.09-0.17,0.22-0.24,0.39-0.19v0.06h0.39c0,0.09,0.09,0.13,0.26,0.13c0.04,0.04,0.09,0.04,0.13,0h0.13c0,0.13,0.09,0.17,0.26,0.13
		c0.06,0.04,0.19,0.08,0.26,0.06c0.08,0.05,0.43,0.11,0.58,0.13c0.04,0.04,0.19,0.06,0.45,0.06l0.07,0.07h0.13v0.06h0.45l0.07,0.13
		h0.13l0.07,0.06l0.19-0.06c-0.27-0.26-0.62-0.7-0.58-1.1l0.13-0.13v-0.13h0.07l-0.84-0.13l-0.06-0.07h-0.13v-0.06h-0.39l-0.07-0.06
		h-0.13v-0.07H16.4L16.27,77h-0.13v-0.06h-0.13c-0.01-0.06-0.53-0.29-0.58-0.32c-0.17,0.14-0.37-0.26-0.45-0.26
		c0-0.04-0.04-0.11-0.13-0.19v-0.58c1.33-1,1.5-0.7,3.3-1.16c-0.02-0.1,0.49,0,0.45-0.19c0.78-0.14,2.09-1.35,2.85-1.75
		c0.08-0.2,0.61-0.19,0.65-0.45c0.17-0.04,0.32-0.17,0.45-0.39c0.77-0.24,1.81-1.08,2.33-1.62c0.44-0.06,1.19-0.77,1.36-1.1h0.13
		c0.08-0.07,0.47-0.51,0.58-0.52v-0.13h0.13c0,0,0.19-0.29,0.32-0.32l0.06-0.13l0.13-0.07v-0.13h0.13c0,0,0.19-0.29,0.32-0.32v-0.13
		c0,0,0.11-0.04,0.19-0.13v-0.07c0.17-0.04,0.34-0.19,0.52-0.45c0.28,0.08,0.87-0.65,0.97-0.65v-0.13c0.28,0.07,0.51-0.41,0.78-0.45
		c0.19-0.22,0.76-0.4,0.91-0.65l0.65-0.26c0.27-0.3,1.18-0.26,1.36-0.52l0.65-0.06c-0.2-0.09-0.11-2.07-0.13-2.26
		c0.04,0,0.07-0.11,0.07-0.32c0.04,0,0.06-0.09,0.06-0.26h0.06l0.07-0.39c0,0,0.04-0.09,0-0.13v-0.06l0.13-0.13v-0.13
		c0.09,0,0.11-0.09,0.06-0.26l0.06-0.06v-0.13c0.09,0.1,0.06-0.15,0.07-0.19h0.06v-0.13h0.07v-0.13l0.06-0.06v-0.13h0.13v-0.13h0.06
		v-0.13l0.07-0.07v-0.06l0.06-0.07v-0.13c0,0,0.02,0.04,0.06,0v-0.13c0.1,0.11,0.05-0.09,0.07-0.13c0.12-0.11,0.27-0.22,0.26-0.39
		c0.13-0.04,0.17-0.11,0.13-0.19l0.65-0.71L36.14,56.89z M35.95,64.85c0,0,0.02,0.09,0.06,0.13c0.09,0,0.11,0.04,0.07,0.13h0.06
		c0.04,0.13,0.15,0.3,0.32,0.52c0.04,0,0.11,0.11,0.19,0.32c0.09,0.04,0.13,0.13,0.13,0.26c0.09,0.04,0.13,0.15,0.13,0.32
		c0.4,0.41,0.55,1.85,0.52,2.33h-0.06c0.04,0.17-0.02,0.28-0.19,0.32c-0.34-1.2-0.99-2.48-1.75-3.43c-0.22,0-0.32-0.02-0.32-0.07
		c-0.61-0.11-1.3,0.32-1.81,0.26c-0.04,0.17-0.19,0.26-0.45,0.26c-0.09,0.22-0.22,0.28-0.39,0.19c-0.21,0.27-0.96,0.62-1.23,0.78
		c-0.09,0.17-0.22,0.28-0.39,0.32c-0.23,0.21-0.72,0.52-1.1,0.65c-0.13,0.13-0.17,0.22-0.13,0.26l-0.19,0.07
		c-0.17,0.26-0.6,0.69-1.29,1.29H28c0,0.09,0,0.2-0.13,0.13c-0.28,0.19-0.76,0.97-1.1,0.97l-0.71,0.65
		c-0.97,0.51-2.1,1.65-3.11,2.01c-0.19,0.33-1.24,0.91-1.55,1.03c-0.52,0.9-4.25,0.15-3.82,1.49h0.13v0.07h0.13l0.06,0.06
		c0.26,0,0.41,0.02,0.45,0.07c0.33-0.02,1.52,0.19,1.75-0.07c1.38-0.17,2.33-0.34,2.85-0.52c0.3,0.06,0.94-0.12,1.16-0.32
		c0.13,0,0.26-0.04,0.39-0.13c0.13,0,0.24-0.06,0.32-0.19c0.83-0.15,2.01-0.98,2.85-1.29c0.53-0.22,1.5-0.66,2.01-1.1
		c0.78-0.45,1.82-1.13,2.65-1.62c0.13,0,0.19,0.04,0.19,0.13h-0.07v0.13l-0.13,0.06c0,0.3-0.93,1.26-0.97,1.1v0.13l-0.13,0.06
		c0,0.19-0.2,0.32-0.32,0.26c-0.11,0.12-0.54,0.67-0.71,0.65c-0.17,0.26-0.34,0.39-0.52,0.39v0.13c0,0-0.09,0.04-0.13,0
		c-0.12,0.32-0.88,0.67-1.23,0.84c-0.18,0.31-0.99,0.72-1.23,0.78c0,0.21-0.43,0.04-0.39,0.32c-0.17,0.13-0.3,0.17-0.39,0.13
		c-0.17,0.17-0.34,0.24-0.52,0.19c-0.18,0.15-0.75,0.45-1.03,0.45c-1.14,0.62-3.45,0.77-4.72,0.84l-0.07-0.06
		c-0.37,0.07-0.7-0.01-0.58,0.58l0.26,0.13l0.07,0.13h0.32c1.76,0.65,5.72-0.2,6.86-0.52c0.07-0.17,0.38-0.15,0.45-0.26
		c0.22-0.04,0.54-0.17,0.97-0.39c0.22,0.04,0.32,0,0.32-0.13l0.65-0.26v-0.13c0.24-0.16,0.65-0.25,0.91-0.39
		c0.09,0,0.19-0.06,0.32-0.19c0.13,0,0.24-0.04,0.32-0.13c0.39,0.06,1.09-0.81,1.23-0.13c-0.26,0.26-0.41,0.39-0.45,0.39
		c-0.34,0.38-0.81,0.9-1.29,1.03c-0.49,0.46-0.44,0.29-0.97,0.78c-0.22,0.05-0.53,0.44-0.84,0.45c0.03,0.2-0.41,0.06-0.39,0.26
		c-0.19-0.02-0.29,0.21-0.45,0.19v0.07c0.22,0,0.32,0.02,0.32,0.06h0.06l0.07-0.06v0.06c0.06,0,1.3-0.07,1.36-0.06l0.06,0.06h0.07
		v-0.06c0.54-0.13,1.14-0.06,1.81-0.39c-0.02-0.21,0.49-0.07,0.45-0.26c0.32-0.07,0.86-0.53,1.16-0.52
		c-0.05-0.27,0.46-0.01,0.45-0.26l0.65-0.26v0.07c0.13,0,0.19,0.02,0.19,0.06c-0.1,0.02-0.8,0.73-1.03,0.97v0.07
		c0.72-0.13,1.32-0.38,1.75-0.71l1.62-1.49c0.04-0.22,0.22-0.39,0.52-0.52v-0.13c0.84-0.85,1.23-1.24,1.81-2.13v-0.07l0.06-0.06
		v-0.06l0.07-0.07v-0.13h0.06v-0.13l0.06-0.07v-0.06l0.13-0.07v-0.32l0.13-0.06v-0.06l0.06-0.07c0.07-0.24,0.17-0.74,0.26-0.91
		c0-0.11-0.05-0.34,0.13-0.32c0-0.17,0.02-0.28,0.06-0.32v-0.45h0.07v-0.39h0.06V68.6h0.06c0-0.09-0.02-0.13-0.06-0.13
		c-0.02-0.54-0.15-1.65-0.39-2.07c-0.2,0.03-0.06-0.42-0.26-0.39l0.06-0.06v-0.06l0.13-0.07l0.07,0.07c0.13-0.04,0.22,0,0.26,0.13
		l0.39,0.26v0.06h0.13c0.89,0.45,1.4-0.15,2.01-0.13c0.19-0.26,0.96-0.34,1.03-0.65c0.13,0,0.24-0.07,0.32-0.19v-0.06
		c0.14-0.03,0.34-0.28,0.32-0.32c0.46-0.56,0.71-0.63,0.78-1.1h0.06v-0.13l0.13-0.06v-0.06l0.07-0.07v-0.06l0.06-0.07v-0.13h0.06
		c-0.03-0.11,0.07-0.22,0.07-0.32l0.06-0.07v-0.13h0.07c0-0.17,0.02-0.28,0.06-0.32v-0.06l0.13-0.06v-0.07
		c-0.09-0.09-0.07-0.13,0.06-0.13v-0.13c-0.09-0.09-0.06-0.13,0.07-0.13v-0.07l0.06-0.06c0-0.17,0.02-0.26,0.06-0.26
		c0-0.22,0.02-0.32,0.07-0.32c0-0.23,0-0.68,0.13-0.78c0.03-0.89-0.01-1.74-0.39-2.65c0.04-0.22,0.02-0.32-0.06-0.32l-0.26-0.65
		h-0.13v-0.13h-0.13l-0.07-0.06c-0.22,0-0.32-0.02-0.32-0.06c-0.17,0-0.26-0.02-0.26-0.07h-0.13l-0.07-0.06
		c-0.17,0-0.26-0.02-0.26-0.07c-0.16,0-0.41-0.12-0.58-0.13v-0.07h-0.13l-0.06-0.06h-0.52V56h-1.23v-0.06h-0.32V56
		c-0.87,0.05-1.87,0.54-2.59,0.78c0,0.13-0.13,0.22-0.39,0.26c-0.3,0.56-1.2,1.08-1.55,1.62v0.06l-0.06,0.07v0.13h-0.07v0.13h-0.06
		v0.13l-0.13,0.06v0.13h-0.06v0.13h-0.07v0.13l-0.06,0.06v0.07l-0.06,0.06v0.06l-0.07,0.07v0.13h-0.06v0.13l-0.07,0.07
		c-0.11,0.35-0.36,1.09-0.45,1.55c-0.16,0.81-0.11,2.46,0.39,3.04L35.95,64.85z M44.39,59.35l0.1,0.07c0,0,0.35-0.08,0.39-0.07
		c0,0.13-0.03,0.19-0.06,0.19c-0.04,0.09-0.02,0.17,0.06,0.26c0,0.13-0.11,0.19-0.32,0.19c0-0.04-0.13-0.06-0.39-0.06
		c-0.45,0.19-0.88,0.25-1.49,0.58c-0.49,0.05-0.51-0.3-0.58-0.65c-0.04-0.17-0.02-0.28,0.06-0.32v-0.06H42.1l0.06-0.06l0.07-0.78
		h0.06c-0.13-0.17,0.38-0.48,0.26-0.65h0.13c0.09-0.13,0.32-0.24,0.71-0.32v0.06h0.13c0.43,0.34,1.3,0.84,0.45,0.97
		C43.95,58.98,43.94,59.49,44.39,59.35z M48.82,58.44c0.13-0.04,0.17-0.11,0.13-0.19l0.07-0.06v-0.13c0.12-0.1,0.11-0.14-0.07-0.32
		c0.04-0.09,0.02-0.15-0.06-0.19c-0.04-0.09-0.06-0.15-0.06-0.19H48.7v-0.13h-0.13l-0.06-0.06h-0.07l-0.06-0.07
		c0,0-0.24,0.04-0.13-0.06c-0.22,0-0.32-0.02-0.32-0.07h-0.71c-0.73,0.81-0.14,1.69-0.07,2.91l-0.06,0.07l-0.07,1.16h0.07v-0.06
		h0.13c-0.08,0,0.7-0.7,0.65-0.91l0.06-0.06c-0.12-0.17,0.2-0.22,0.19-0.32c0.11-0.1,0.2-0.22,0.19-0.39h0.07
		c0.13-0.17,0.19-0.3,0.19-0.39l0.13-0.07v-0.13h0.06c-0.02-0.08,0.03-0.25,0.07-0.32L48.82,58.44z M56.71,61.93
		c-0.05,0.58,0.2,1.9,0.78,2.01V64c1.37,0.24,1.12-1.16,0.78-1.88c0-0.42,0.26-0.99,0.19-1.42C57.71,59.4,56.49,60.68,56.71,61.93z
		 M49.4,59.34c0,0.13-0.06,0.19-0.19,0.19c-0.01,0.04,0.04,0.24-0.06,0.13v0.13l-0.07,0.06v0.13h-0.06v0.13l-0.07,0.06
		c0.07,0.2-0.43,0.52-0.52,0.71c0,0.03-0.14,0.51-0.32,0.39v0.13l-0.19,0.06v0.07l-0.13,0.06c0.03,0.3-0.91,0.71-0.91,1.1h0.06
		c0.09-0.09,0.13-0.06,0.13,0.06h0.13l0.06,0.07c0.21,0.04,0.56,0.09,0.65-0.13c0.9-0.68,1.61-2.31,3.11-2.13
		c0.09,0.09,0.15,0.09,0.19,0c-0.18-0.53-0.24-1.16-0.45-1.36c0.06-0.26-0.46-0.4-0.45-0.58c-0.13-0.13-0.24-0.19-0.32-0.19v-0.07
		h-0.32c0,0.17-0.02,0.26-0.07,0.26c-0.05,0.21-0.09,0.51-0.19,0.71L49.4,59.34z M46.42,63.67h-0.13v0.13
		c0.09,0.09,0.06,0.13-0.06,0.13v0.13h-0.07v0.13H46.1v0.13l-0.07,0.06c0.04,0.13,0,0.24-0.13,0.32h-0.07l-0.19,0.19
		c0,0.17-0.04,0.32-0.13,0.45h0.13l0.13,0.13h0.39v0.07c0.6-0.1,2.09,0.03,2.07-0.78v-0.13H48.1c-0.45-0.45-0.63-0.99-1.1-1.16
		c-0.17-0.17-0.32-0.24-0.45-0.19c-0.01,0.02-0.06,0.35-0.13,0.26C46.42,63.54,46.42,63.67,46.42,63.67z M29.6,84.24
		c0.3,0.04,0.63-0.02,0.97-0.19c0.26,0.04,0.52-0.06,0.78-0.32c0.13,0,0.22-0.04,0.26-0.13c0.46-0.19,1.63-0.41,1.94-0.65h0.19
		l-0.06,0.07c0.01,0.09-0.14,0.28-0.26,0.39c0,0.37-0.39,0.68-0.58,0.71v0.07l-0.13,0.06v0.13h-0.06v0.06h0.13v0.07
		c0.17-0.01,0.28,0.13,0.39,0.26c0.1,0,0.22,0.1,0.32,0.07v0.06h0.13l0.06,0.07h0.06l0.07,0.06c0.22-0.07,0.49,0.07,0.65,0.26h0.06
		v-0.07c0.3-0.12,0.71-0.16,0.78-0.39c0.36,0.15,1.09-0.89,1.36-1.04v-0.13c0.22-0.13,0.35-0.3,0.39-0.52h0.06v-0.13h0.07
		c0-0.22,0.51-0.47,0.39-0.71l0.13-0.06c0.04-0.13,0.26-0.39,0.65-0.78h0.13c0.3-0.3,0.47-0.45,0.52-0.45v-0.06
		c0.52-0.65,0.95-1.1,1.29-1.36c0-0.04,0.13-0.19,0.39-0.45c-0.02-0.05,0.36-0.43,0.32-0.52l0.26-0.39h0.06V78.1l0.07-0.06v-0.13
		h0.06c0.13-0.13,0.17-0.24,0.13-0.32l0.06-0.06v-0.07l0.13-0.06v-0.13l0.06-0.06v-0.13c0.12-0.11,0.26-0.22,0.19-0.39l0.06-0.06
		c-0.03-0.11,0.07-0.22,0.06-0.32l0.13-0.13c0-0.15-0.01-0.55,0.13-0.52v-0.13l0.06-0.06v-0.45h0.07l0.26-1.81h0.07v-0.45h0.06
		c0.04-0.94-0.19-2.78-0.19-3.69c-0.23-0.22,0.12-1.02,0.06-1.36h0.07c0-0.17,0.02-0.26,0.06-0.26c0.08-0.43-0.25-0.15-0.45-0.26
		c-0.21,0.35-1.17,0.09-1.42,0.13c-0.02,0.41,0.16,1.49,0.06,1.94h-0.06v0.65h-0.07v0.39h-0.06v0.45h-0.07v0.39h-0.06
		c0.02,0.2-0.15,0.38-0.13,0.58c-0.19,0.07-0.13,0.58-0.26,0.58c-0.04,0.16-0.09,0.63-0.19,0.65c0.03,0.13-0.09,0.26-0.06,0.39
		h-0.06v0.13h-0.07v0.13l-0.06,0.07v0.06l-0.13,0.06v0.07l-0.06,0.06v0.13H39.7c0.07,0.17-0.07,0.28-0.19,0.39v0.13h-0.13v0.26
		l-0.13,0.06v0.07l-0.06,0.06v0.13h-0.06v0.13l-0.07,0.06v0.06L39,75.47c0.04,0.13,0,0.24-0.13,0.32h-0.13
		c-0.24,0.51-1.19,1.59-1.88,2.01l-0.45,0.45h-0.13c-0.37,0.62-1.55,1.1-2.2,1.42c-0.04,0.09-0.15,0.13-0.32,0.13
		c-0.38,0.29-1.58,0.39-2.07,0.78c0,0.17-0.11,0.28-0.32,0.32c-0.09,0.13-0.19,0.17-0.32,0.13c0,0.13-0.11,0.24-0.32,0.32
		c-0.09,0.13-0.19,0.17-0.32,0.13c-0.16,0.16-0.63,0.68-0.84,0.65c-0.05,0.15-0.26,0.57-0.32,0.58c-0.23,0.54-0.94,0.94-0.13,1.42
		h0.13l0.07,0.07h0.13c0,0,0.11-0.02,0.19,0.06L29.6,84.24z M21.45,81.39h-0.06c0,0.09-0.09,0.11-0.26,0.06
		c-0.31,0.2-0.56,0.36-0.84,0.39c-0.65,0.4-1.79,0.73-2.65,1.04c-1.05,0.56-1.9,0.22-2.72,0.91c-0.01,0.92,0.22,2.22,1.42,1.36
		c0.04-0.09,0.3-0.24,0.78-0.45c0.17,0.04,0.32-0.02,0.45-0.19c-0.03-0.2,0.41-0.06,0.39-0.26c0.22,0,0.67-0.34,0.71-0.52
		c0.31-0.05,0.77-0.39,1.23-0.65c-0.02-0.14,0.37-0.11,0.26-0.26c0.26-0.04,0.56-0.17,0.91-0.39c0.19-0.27,0.71-0.31,0.97-0.52
		l-0.45-0.45c0,0-0.24,0.04-0.13-0.06L21.45,81.39z M20.8,80.55v-0.13h-0.13c-0.09,0.09-0.13,0.06-0.13-0.07h-0.45v-0.06
		c-0.25-0.11-0.89-0.09-1.1-0.19c-0.09-0.01-0.43-0.08-0.52-0.07l-0.13-0.13h-0.58v-0.06c-0.13-0.04-0.43-0.09-0.58-0.06v-0.07
		c-0.17,0-0.26-0.02-0.26-0.06c-0.13-0.08-0.66,0.02-0.65-0.13h-0.13l-0.07-0.06h-0.06c-0.07-0.2-0.53-0.22-0.45-0.32h-0.39v-0.07
		c-0.09,0.09-0.17,0.11-0.26,0.07c-0.13,0.13-0.19,0.22-0.19,0.26l-0.07,0.07v0.06l-0.06,0.06v0.07c-0.13,0.1-0.13,0.28-0.13,0.45
		l-0.13,0.13v0.58h-0.06c0.03,0.2-0.19,1.87,0.65,1.36v0.07c1.05,0.02,2.44-0.32,2.85-0.58c0.42,0.02,1.41-0.5,1.55-0.58
		c0.19,0.12,0.28-0.2,0.45-0.19c0.22-0.13,0.56-0.24,1.03-0.32L20.8,80.55z M23.84,81.59c0.28,0.06,0.59,0.25,0.91,0.19v0.06
		c0.6,0.04,0.97,0,1.1-0.13c1.05-0.08,2.68-0.33,3.43-1.16c0.09,0.04,0.19,0,0.32-0.13v-0.07h-1.04v-0.06
		c-0.22,0-0.34-0.02-0.39-0.07c-0.13-0.04-0.81-0.03-0.84-0.13c-0.22,0.04-0.32,0.02-0.32-0.07h-0.07l-0.13-0.13
		c-0.29-0.03-0.58,0.01-0.65-0.19h-0.13l-0.07-0.06c-0.74-0.12-1.88,0.37-2.59,0.19c0,0.04-0.02,0.11-0.06,0.19l-0.13,0.07
		c-0.11,0.24-1,0.56-0.91,0.91h0.13c0,0,0.04,0.09,0,0.13c0.23-0.03,0.33,0.32,0.58,0.26c0.04,0.04,0.04,0.06,0,0.06h0.39v0.06
		c0.26,0,0.41,0.02,0.45,0.07L23.84,81.59z M16.66,86.77c-0.03,0.19,0.19,0.09,0.19,0.19h0.06l0.07,0.06h0.13v0.07h0.13v0.06h0.13
		l0.07,0.07c0.13,0,0.5-0.04,1.1-0.13c0.21-0.29,0.94-0.39,1.04-0.65c0.04,0,0.13-0.07,0.26-0.19c0.13,0.04,0.24,0,0.32-0.13
		c0.22-0.09,0.32-0.17,0.32-0.26c0.62-0.2,1.7-1.05,2.07-1.36c0.18,0.1,0.82-0.54,0.84-0.45c-0.04-0.18,0.32-0.23,0.32-0.32
		c0.21-0.02,0.61-0.34,0.78-0.45c-0.09-0.09-0.11-0.15-0.06-0.19c0-0.07-0.71-0.09-0.71-0.19v-0.07h-0.13l-0.07-0.06
		c-0.19,0.07-0.62-0.17-0.78-0.26v-0.06h-0.26c-0.08,0.24-0.56,0.38-0.78,0.52c-0.68,0.51-1.51,1.07-2.2,1.42
		c0,0.13-0.11,0.24-0.32,0.32c-0.09,0.13-0.26,0.24-0.52,0.32c-0.09,0.13-0.19,0.17-0.32,0.13c-0.09,0.17-0.28,0.28-0.58,0.32
		c-0.22,0.22-0.43,0.34-0.65,0.39c-0.04,0.04-0.24,0.13-0.58,0.26c-0.01,0.04,0.04,0.24-0.06,0.13
		C16.47,86.52,16.23,86.62,16.66,86.77L16.66,86.77z M21.71,89.16c0.2,0.35,1.44,0,1.29,0c0.36-0.23,0.59-0.41,1.16-0.97v-0.13
		c0.34-0.34,0.52-0.54,0.52-0.58c0.21-0.07,0.49-0.68,0.71-0.71c0.05-0.13,0.45-0.53,0.39-0.71h0.07v-0.13h0.06
		c0-0.08,0.37-0.44,0.32-0.58h0.06c0.13-0.13,0.17-0.24,0.13-0.32c0.29-0.26,0.59-0.77,0.78-1.1c0.05-0.28,0.55-0.84,0.71-1.16
		h-0.45c0,0.13-0.07,0.17-0.19,0.13c-1.81,0.2-2.93,2.04-4.4,2.98v0.07c-0.17,0.22-0.34,0.32-0.52,0.32c0,0.18-0.34,0.2-0.39,0.39
		c-0.24,0.04-0.4,0.48-0.71,0.45c-0.19,0.4-1.26,0.64-1.36,1.1c0.04,0,0.11,0.04,0.19,0.13c0.24,0.03,0.72,0.43,0.97,0.58
		c0.17-0.07,0.28,0.07,0.39,0.19h0.07c0,0,0.06,0.07,0.19,0.07L21.71,89.16z M32.71,86.38v0.13l-0.06,0.07v0.13h-0.07v0.13h-0.06
		v0.13l-0.07,0.06v0.07l-0.13,0.06v0.13h-0.07c0,0,0.04,0.24-0.06,0.13v0.13c-0.2-0.01-0.19,0.57-0.45,0.52
		c-0.16,0.28-0.78,0.23-1.29,0.19v0.06l-0.06,0.07v0.13c0,0-0.07,0.04-0.07,0c-0.14,0.35-0.08,0.64,0.26,0.97h0.13
		c-0.03,0.2,0.41,0.06,0.39,0.26c0.28-0.08,0.35,0.08,0.52,0.32c0.13-0.04,0.24,0.02,0.32,0.19l-0.13,0.91h-0.06
		c0.04,0.13,0.09,0.32,0.13,0.58c0.09-0.16,2.27-0.08,2.39-0.13l0.06-0.07l0.06,0.13c0.13-0.19,4.12-0.06,4.27-0.13
		c-0.09-0.04-0.13-0.13-0.13-0.26c-0.09-0.13-0.17-0.17-0.26-0.13v-0.19h-0.13c-0.06-0.19-0.47-0.14-0.45-0.26
		c-0.39-0.11-1.41-0.05-1.42,0l-0.06-0.06c-0.31-0.03-1.14,0.43-1.29,0.19c-0.25,0.12-0.38-0.2-0.58-0.19v-0.07h-0.06
		c-0.09-0.09-0.13-0.17-0.13-0.26C33.97,90.36,33.92,90,33.83,90c-0.37-0.31-0.47-0.72-0.78-0.84l-0.26-0.78
		c0.12-0.11,0.27-0.29,0.26-0.39l0.06-0.06v-0.06l0.07-0.07v-0.13h0.06v-0.13l0.07-0.07v-0.06l0.06-0.07v-0.06
		c0.12-0.11,0.26-0.29,0.19-0.39c0.17-0.06,0.26-0.21,0.26-0.39h0.06v-0.13h0.07v-0.26h-0.13l-0.07-0.07h-0.13l-0.07-0.06
		c-0.1,0-0.22-0.1-0.32-0.06v-0.07c-0.09-0.04-0.19,0-0.32,0.13c0.04,0.13,0,0.24-0.13,0.32c0,0.09-0.02,0.11-0.06,0.06L32.71,86.38
		z M39.24,91.1c-0.03,0.72,1,0.37,1.49,0.39c-0.04-0.17-0.17-0.3-0.39-0.39l-0.06-0.13h-0.13V90.9c0,0-0.29,0.03-0.19-0.06h-0.13
		l-0.06-0.06c-0.13-0.06-0.56-0.08-0.71-0.07C39.02,90.84,39.08,90.97,39.24,91.1L39.24,91.1z M35.94,86.12v-0.07
		c-0.17,0-0.26,0.02-0.26,0.07c-0.27-0.11-0.45,0.26-0.71,0.13c0.06,0.2-0.04,0.38-0.19,0.52v0.13l-0.13,0.06v0.06l-0.06,0.07v0.06
		l-0.07,0.07v0.13h-0.06c0,0,0.04,0.24-0.07,0.13c0.06,0.21-0.04,0.44-0.26,0.52c0.03,0.15-0.05,0.54-0.26,0.52v0.26l0.58,0.52
		c0.13,0,0.17-0.04,0.13-0.13l0.06-0.07v-0.13h0.13v-0.13l0.06-0.07v-0.13l0.07-0.06v-0.06l0.06-0.07v-0.13l0.06-0.06v-0.13
		l0.07-0.06c0-0.1,0.1-0.22,0.06-0.32h0.07v-0.13l0.13-0.13v-0.06l0.07-0.07c0-0.17,0.02-0.26,0.06-0.26v-0.13h0.07v-0.13l0.06-0.06
		v-0.07l0.06-0.06c-0.03-0.11,0.07-0.22,0.07-0.32l0.06-0.06V86.2l0.13-0.06L35.94,86.12z M82.65,60.5
		c-0.26,0.22-0.45,0.39-0.58,0.52c-1.23,1.27-2.72,3.18-4.33,3.56c0.67-1.81,2.5-4.23,4.2-4.72c0.26,0.09,0.63,0.07,1.1-0.06
		C83,60.06,82.87,60.3,82.65,60.5L82.65,60.5z M76.5,81.52c-0.34-0.17-0.67-0.24-0.97-0.19c-0.11,0.28-0.38,0.71-0.32,1.04
		l-0.13,0.13c-0.02,0.09-0.15,0.63-0.13,0.71c-1.73,0.14-3.72,0.95-4.53,2.65c-0.13,0.12-0.22,0.33-0.19,0.52H70.1
		c0,0.22-0.02,0.32-0.06,0.32c0.04,0.13,0,0.3-0.13,0.52c-1,1.68,0.59,4.84,2.65,3.56c0.3-0.17-0.02-0.96-0.06-1.1
		c0.06-0.27-0.14-2.25,0.13-2.39c0.26-1.34,1.36-2.44,3.3-3.3c0.26,0.09,0.41,0.06,0.45-0.07c0.24,0.11,0.8-0.22,1.03-0.19
		c0-0.66,0.41-1.57-0.06-1.68v-0.13c-0.17-0.04-0.45-0.17-0.84-0.39L76.5,81.52z"/>
	<path fill-rule="evenodd" clip-rule="evenodd" fill="#9B9B9B" d="M50.18,8.71c-0.08,0.16-0.55,0.94-0.58,1.23
		c-0.04,0-0.06,0.11-0.06,0.32h-0.06c-0.3,1.83,0.52,3.04,1.42,4.72c0.46,0.25,0.66,1.36,1.16,1.55v0.13
		c0.39,0.39,0.95,0.91,1.68,1.55c0.16,0,0.39,0.13,0.45,0.32h0.13l0.06,0.06c0.1,0,0.22,0.1,0.32,0.07l0.06,0.06h0.07
		c0,0,0.17,0.06,0.39,0.06l0.13,0.13h0.13c0,0.09,0.11,0.11,0.32,0.07c0,0.04,0.11,0.06,0.32,0.06c0,0.13,0.11,0.17,0.32,0.13
		c0.06,0.04,0.18,0.08,0.26,0.06c0,0.04,0.11,0.07,0.32,0.07v0.06h0.39c0,0,0.11,0.06,0.32,0.06v0.07c0.09,0.09,0.24,0.11,0.45,0.06
		v0.07h0.45l0.13,0.13h0.13c0.04,0.09,0.17,0.11,0.39,0.07c-0.05,0.09,0.36,0.1,0.45,0.13c0,0.13,0.04,0.15,0.13,0.06h0.13
		c0,0.12,0.1,0.14,0.19,0.13c0.04,0.04,0.17,0.06,0.39,0.06c0,0.13,0.04,0.15,0.13,0.07h0.07c0.15,0.25,0.82,0.13,1.1,0.26
		c0,0.13,0.04,0.15,0.13,0.07h0.13c-0.01,0.15,0.16,0.13,0.26,0.13l0.06,0.07h0.19c0,0,0.11,0.06,0.32,0.06
		c-0.18,0.17,0.17,0.12,0.26,0.13v0.06h0.13c0,0,0.11,0.07,0.32,0.07l0.06,0.13c0.11-0.03,0.22,0.07,0.32,0.06
		c-0.02,0.06,0.16,0.07,0.26,0.06c0,0.13,0.04,0.15,0.13,0.07h0.13c0,0.13,0.04,0.15,0.13,0.06h0.13l0.06,0.13h0.13v0.06h0.13
		l0.13,0.13h0.13l0.07,0.07c0.11,0,0.26,0.1,0.39,0.06c-0.1,0.09,0.15,0.06,0.19,0.06c0,0.13,0.04,0.15,0.13,0.07h0.13l0.13,0.13
		h0.13v0.06h0.13c0,0.13,0.04,0.15,0.13,0.06h0.13l0.13,0.13h0.13l0.06,0.07h0.06l0.07,0.06h0.13l0.06,0.06h0.13v0.07h0.13
		l0.06,0.13c0.13-0.04,0.26,0.02,0.39,0.19v0.06h0.13l0.07,0.07c0.13,0,0.17,0.23,0.32,0.13l0.06,0.13l0.65,0.32v0.07h0.13
		l0.06,0.13c0.27-0.03,0.53,0.3,0.84,0.45c0.5,0.41,1.54,1.88,1.94,2.13c1.72,2.26,3.14,5.77,3.49,8.99
		c-0.76-1.38-1.96-3.16-2.65-4.33c-0.17-0.09-0.26-0.22-0.26-0.39c-1.08-0.88-2.2-2.51-3.3-2.98c-0.46-0.2-0.49-0.6-0.84-0.58
		c-0.11-0.26-0.47-0.4-0.65-0.45c-0.13-0.16-0.23-0.33-0.45-0.26c-0.11-0.12-0.22-0.26-0.39-0.19c-0.13-0.15-0.34-0.34-0.52-0.32
		v-0.06h-0.19c0,0,0.04-0.02,0-0.07h-0.13l-0.06-0.06H66.5l-0.06-0.06h-0.13l-0.06-0.13h-0.13v-0.07h-0.13l-0.06-0.06h-0.07
		l-0.13-0.13h-0.06l-0.06-0.06h-0.13v-0.07h-0.13l-0.06-0.06h-0.13l-0.07-0.06h-0.06c-0.27-0.33-0.66-0.4-1.03-0.45v-0.07h-0.13
		l-0.07-0.06h-0.13c0,0,0.04-0.09,0-0.13h-0.19c0.1-0.09-0.15-0.06-0.19-0.06c0-0.13-0.04-0.15-0.13-0.07h-0.13l-0.07-0.13h-0.13
		v-0.07c-0.22,0-0.43-0.14-0.65-0.13v-0.13c-0.13,0.03-0.26-0.09-0.39-0.07c0-0.13-0.04-0.15-0.13-0.06h-0.13l-0.13-0.13h-0.13
		l-0.07-0.06h-0.06l-0.06-0.07h-0.13l-0.13-0.13c-0.22,0.02-0.42-0.17-0.65-0.13c0-0.04-0.09-0.07-0.26-0.07
		c0-0.15-0.54-0.05-0.58-0.19c0-0.15-0.54-0.05-0.58-0.19c-0.6-0.06-1.37-0.28-1.88-0.19v-0.07h-0.71v-0.06
		c-0.55-0.04-1.08,0.05-1.23-0.45c-0.85-0.28-1.53-1.59-1.88-1.81v-0.13l-0.58-0.58v-0.06c-0.4-0.4-1.21-1.22-1.29-1.55h-0.13
		c-1.66-2.64-2.64-5.83-2.72-9.32c0.24-0.31,0.68-0.17,1.1-0.13c0,0.09,0.11,0.11,0.32,0.06v0.07h0.13
		C49.83,8.7,50.22,8.6,50.14,8.7L50.18,8.71z"/>
	<path fill-rule="evenodd" clip-rule="evenodd" fill="#CDCDCC" d="M84.66,53.73l-0.19,0.45l-0.13,0.07v0.06l-0.06,0.06
		c0.04,0.13-0.02,0.22-0.19,0.26c-0.09,0.22-0.3,0.5-0.65,0.84c-0.02,0.37-0.56,0.6-0.65,1.04h-0.13c-0.06,0.73-1.02,1.3-1.36,0.52
		l0.07-0.07c0-0.22,0.02-0.34,0.06-0.39v-0.06l0.13-0.13v-0.52h0.06v-0.52h0.07c0.13-0.43,0.17-0.8,0.13-1.1h0.06
		c0-0.06-0.02-0.35,0.06-0.26v-0.13l0.07-0.06v-0.13l0.06-0.06c0-0.13-0.03-0.32,0.13-0.39c0-0.05-0.03-0.2,0.06-0.19v-0.19
		l0.13-0.07c0-0.22,0.02-0.32,0.07-0.32c0.04-0.95,0.02-1.6-0.07-1.94l0.07-0.06c0.06-0.17-0.69-1.61-1.04-2.07
		c-0.26-0.04-0.36-0.79-0.65-0.84c-0.14-0.26-0.43-0.5-0.45-0.71l-1.75-1.68c-0.14,0.1-0.26-0.11-0.39-0.13l-0.06-0.06h-0.07
		l-0.06-0.13c-0.16,0.12-0.29-0.17-0.39-0.19l-0.07-0.06h-0.06c-0.09,0.09-0.13,0.06-0.13-0.07c-0.42-0.03-0.77-0.4-0.91-0.65
		c0.37-0.64,0.7-1.22,0.78-2.07c0.32-0.27,0.04-0.47,0.32-1.36c4.81,2.11,7.35,5.96,7.44,11.13l0.13,0.13v0.65l-0.13,0.19
		c0,0.47-0.11,0.88-0.32,1.23L84.66,53.73z M111.38,79.41v0.32h-0.06c0,0.22-0.02,0.32-0.06,0.32c-0.02,0.31,0.01,0.41-0.13,0.39
		v0.13l-0.07,0.07c0.09,0.17,0.04,0.32-0.13,0.45h-0.13v0.13l-0.07,0.07v0.13l-0.06,0.06v0.06l-0.13,0.07
		c0,0.22-0.02,0.32-0.06,0.32c0.03,0.13-0.09,0.26-0.07,0.39c-0.04,0.04-0.06,0.04-0.06,0v0.19h-0.06
		c-0.04,0.17-0.17,0.39-0.39,0.65c0,0.04-0.02,0.04-0.06,0l-0.32,0.65h-0.07v0.13l-0.13,0.07v0.13l-0.07,0.07
		c0,0.38-0.32,0.7-0.58,0.84v-0.26c-0.22-0.12-0.51,0.42-0.71,0.39c0.04,0.09,0,0.15-0.13,0.19c-0.28-0.22-0.37,0.33-0.65,0.19
		c-0.52,0.52-0.78,0.82-0.78,0.91c-0.22,0.22-0.39,0.34-0.52,0.39c0,0.09-0.11,0.17-0.32,0.26l-0.26,0.45
		c-0.67,0.37-1.29,1.3-2.01,1.29c-1.24,0.71-3.16,1.43-4.33,1.16c-0.04,0.09-0.17,0.13-0.39,0.13v-0.07
		c-0.39-0.09-0.71-0.06-0.97,0.07c-0.17-0.09-0.67-0.13-1.49-0.13v-0.07h-0.58c0,0,0.04-0.06,0-0.06l-0.06,0.06
		c-0.1-0.18-0.44,0.17-0.58-0.06c-2.89-0.13-6.08,0.71-7.12,0.91c-3.43-0.74-7.41,1.91-9.38-0.58c1.94-0.39,3.17-0.56,3.69-0.52
		l0.07-0.07l0.06,0.07c5.53-0.92,9.55-1.27,15.27-2.85v0.07h0.39v0.06c1.86,0.53,5.52-0.68,7.18-2.2c0.22-0.09,0.5-0.3,0.84-0.65
		c-0.05-0.25,0.29-0.24,0.19-0.45c0.17-0.09,0.37-0.3,0.58-0.65c-0.03-0.17,0.42-0.34,0.39-0.52c0.14-0.12,0.26-0.3,0.19-0.45h0.13
		v-0.13l0.06-0.07v-0.13l0.06-0.07v-0.13h0.13V81.4l0.07-0.07V81.2h0.06c-0.04-0.33,0.36-0.59,0.58-0.78
		c-0.04-0.17,0.44-0.33,0.32-0.52c0.25-0.15,0.82-0.87,0.91-1.23c0.07-0.08,0.39-0.65,0.52-0.65v-0.13h0.07v-0.13l0.13-0.06v-0.13
		h0.06v-0.19h0.06v-0.13l0.07-0.06v-0.07l0.06-0.06v-0.13l0.13-0.06v-0.13l0.06-0.07c0.05-0.24,0.23-0.76,0.26-0.97
		c0.09-0.22-0.01-0.52,0.32-0.58c0,0.39-0.02,1.06-0.06,2.01c-0.1,0.08-0.01,0.6-0.19,0.65c0,0.16,0.01,0.47-0.13,0.52
		c0.15,0.22-0.41,0.77-0.19,0.97c0.05,0.08,0.07,0.32,0.07,0.52l-0.07,0.06c0.13,0.13,0.19,0.11,0.19-0.06L111.38,79.41
		L111.38,79.41z M83.11,76.76l-0.07,0.78h-0.06c-0.09,2.24,0.02,3.92,0.32,5.05h0.13c0.02,0.31,0.21,0.72,0.32,1.16
		c-0.87-0.06-3.52,0.66-4.4,1.29c-0.14,0.28-0.83,0.43-0.97,0.78h-0.13c-0.3,0.34-0.78,0.86-1.42,1.55c0.04,0.09,0,0.15-0.13,0.19
		l-0.06,0.71c0,0-0.07,0.17-0.07,0.39h-0.06c0,0.39,0.02,0.6,0.06,0.65c-0.06,0.5,0.33,1.03,0.26,1.55
		c-0.17-0.13-0.34-0.15-0.52-0.06v-0.07h-0.13l-0.07-0.13c-0.96-0.64-1.12-0.47-1.23-1.16c-0.09-0.13-0.13-0.39-0.13-0.78
		c0.26,0.09,0.43,0.26,0.52,0.52l0.39,0.06v0.06h0.19c-0.01-0.37-0.21-0.66-0.07-1.1h0.07c0-0.22,0.02-0.35,0.06-0.39l-0.06-0.06
		l0.06-0.07c-0.05-1.13,0.99-3.07,2.46-3.36c0.04-0.2,1.3-0.21,1.1-0.78c2.12,0.21,0.98-2.1,1.36-3.11
		c0.13-0.13,0.19-0.22,0.19-0.26l0.13-0.06v-0.13c-0.09-0.09-0.07-0.13,0.06-0.13v-0.06l0.06-0.07c0-0.22,0.14-0.43,0.13-0.65
		l0.13-0.06v-0.07c-0.09-0.09-0.06-0.13,0.06-0.13v-0.13c-0.09-0.09-0.06-0.13,0.07-0.13v-0.13l0.13-0.06v-0.13h0.06
		c-0.05-0.24,0.3-0.43,0.19-0.65h0.13c0.01-0.29,0.84-0.74,0.91-0.84L83.11,76.76z M75.48,62.27c0.3-0.18,0.53,0.14,0.71,0.32
		c0.04,0.26,0.02,0.43-0.07,0.52h-0.06v0.13L76,63.31v0.13l-0.07,0.07c0,0.1-0.1,0.22-0.06,0.32l-0.07,0.06
		c0,0.22-0.04,0.32-0.13,0.32c0.04,0.22,0.02,0.32-0.07,0.32v0.13l-0.13,0.13v0.13l-0.06,0.06c-0.05,0.08-0.04,0.51-0.13,0.45
		c0.02,0.07-0.02,0.2-0.06,0.26c0.04,0.17,0,0.28-0.13,0.32c0.03,0.13-0.09,0.26-0.06,0.39h-0.07c0.01,0.08,0,0.37-0.13,0.26
		c0,0.22-0.02,0.32-0.06,0.32c0,0.22-0.02,0.32-0.06,0.32c0,0.26-0.02,0.39-0.07,0.39v0.13h-0.13v0.13l-0.06,0.07
		c0,0-0.05,0.21-0.06,0.26c0.04,0.17,0,0.26-0.13,0.26c-0.01,1.47,1.38,4.92,1.81,6.86c0.2,0.04,0.15,0.64,0.32,0.71
		c0.43,0.73,1.35,1.36,2.13,2.07c0.03,1.57-1.53,1.24-1.88,0.13h-0.13c-0.41-0.72-1.03-1.43-1.23-2.13c-0.04,0-0.13-0.15-0.26-0.45
		c-0.17-0.07-0.12-0.6-0.32-0.65c-1.59-2.62-1.92-5.7-2.01-8.86c0.04,0,0.07-0.13,0.07-0.39c0.09,0,0.13-0.09,0.13-0.26
		c0.08-0.2,0.42-0.44,0.52-0.58c0.44-0.27,1.16-1.01,1.29-1.42c0.2-0.21,0.34-0.53,0.39-0.65c0.19-0.06,0.33-0.29,0.26-0.45
		L75.48,62.27L75.48,62.27z M67.91,58.97c-0.15-0.12-0.74-0.99-0.58-1.42c-0.04-0.26,0.04-0.47,0.26-0.65v0.06h0.13l0.07,0.07h0.06
		l0.07,0.06h0.13l0.07,0.07h0.13v0.13h0.13l0.07,0.07h0.13c0.14,0.3,1.11,0.17,1.36,0.19v0.06c0.7,0.47,5.73-0.88,4.14,0.58
		c-1.92,0.49-4.21,1.35-6.02,0.39l-0.13,0.39L67.91,58.97z M60.21,64.02c0.15-0.02,0.21,0.12,0.32,0.13
		c0.09-0.09,0.13-0.07,0.13,0.06c0.24,0.09,0.73,0.03,0.84,0.26c0.26,0,0.41,0.02,0.45,0.06c0.99,0.04,3.71-0.2,4.66-1.42
		c0.31-0.05,1.01-0.76,1.23-1.16c0.17-0.13,0.3-0.32,0.39-0.58l0.13-0.07v-0.06c-0.13-0.13-0.11-0.19,0.07-0.19
		c0-0.56-0.11-0.88-0.32-0.97c-0.16-0.3-0.52-0.74-0.19-1.04c0.04,0.13,0.24,0.28,0.58,0.45l0.07,0.13
		c0.29-0.05,0.42,0.32,0.84,0.39c0.03,0.37-0.06,0.52-0.07,0.97h-0.06v0.45l-0.06,0.06v0.13l-0.32,0.45
		c0.03,0.57-0.77,1.55-1.29,1.88c-1.71,1.38-4.01,1.53-6.08,1.1l-0.06-0.06h-0.13l-0.07-0.13h-0.06l-0.06-0.06h-0.13v-0.07
		c-0.13-0.17-0.26-0.24-0.39-0.19c-0.26-0.17-0.39-0.34-0.39-0.52L60.21,64.02z M76.51,81.55c0.39,0.22,0.67,0.35,0.84,0.39v0.13
		c0.48,0.11,0.05,1.02,0.06,1.68c-0.24-0.03-0.79,0.31-1.03,0.19c-0.04,0.13-0.19,0.15-0.45,0.07c-1.94,0.86-3.04,1.96-3.3,3.3
		c-0.27,0.13-0.07,2.13-0.13,2.39c0.04,0.14,0.36,0.93,0.06,1.1c-2.07,1.28-3.65-1.87-2.65-3.56c0.13-0.22,0.17-0.39,0.13-0.52
		c0.04,0,0.06-0.11,0.06-0.32h0.13c-0.03-0.19,0.06-0.39,0.19-0.52c0.81-1.71,2.79-2.51,4.53-2.65c-0.02-0.08,0.11-0.62,0.13-0.71
		l0.13-0.13c-0.05-0.32,0.21-0.76,0.32-1.04c0.3-0.04,0.63,0.02,0.97,0.19L76.51,81.55z"/>
	<path fill-rule="evenodd" clip-rule="evenodd" fill="#CDDE6A" d="M45.79,57.42c0,0-0.19-0.06-0.45-0.06v-0.07l-0.39-0.06
		c-1.32-0.33-2.85,0.16-4.14,0.32c-0.24,0.09-0.64,0.57-0.91,0.58c-0.17,0.17-0.3,0.26-0.39,0.26c-0.08,0.08-0.47,0.58-0.58,0.58
		c0.08,0.2-0.19,0.15-0.32,0.32v0.06c-0.08,0.19-0.68,0.63-0.78,0.97l-0.32,0.32c0.08,0.15-0.28,0.58-0.39,0.65v0.07l-0.06,0.06
		v0.13c-0.19,0.02-0.15,0.37-0.19,0.52c-0.09-0.1-0.06,0.15-0.07,0.19c-0.04,0-0.06,0.11-0.06,0.32c-0.04,0-0.07,0.09-0.07,0.26
		c-0.13,0-0.15,0.04-0.06,0.13v0.06l-0.13,0.06v0.13h-0.06v0.13h-0.07v0.13l-0.06,0.06v0.07c0,0-0.06,0.15-0.06,0.32
		c-0.04,0-0.07,0.09-0.07,0.26c-0.04,0-0.06,0.11-0.06,0.32c-0.17,0.04,0.01,0.3-0.13,0.32c-0.5-0.59-0.54-2.23-0.39-3.04
		c0.09-0.47,0.34-1.2,0.45-1.55l0.07-0.07v-0.13h0.06v-0.13l0.07-0.07v-0.06l0.06-0.06v-0.07l0.06-0.06v-0.13h0.07v-0.13h0.06V59.2
		l0.13-0.06v-0.13h0.06v-0.13h0.07v-0.13l0.06-0.07v-0.06c0.35-0.53,1.25-1.06,1.55-1.62c0.26-0.04,0.39-0.13,0.39-0.26
		c0.71-0.24,1.72-0.72,2.59-0.78V55.9h0.32v0.06h1.23v0.07h0.52l0.06,0.06h0.13v0.07c0.17,0,0.42,0.14,0.58,0.13
		c0,0.04,0.09,0.07,0.26,0.07l0.07,0.06h0.13c0,0,0.09,0.07,0.26,0.07c0,0.04,0.11,0.06,0.32,0.06l0.07,0.06h0.13v0.13h0.13
		l0.26,0.65L45.79,57.42z M46.11,60.91h-0.19c-0.17,0.17-0.58,0.22-1.23,0.13c-1.31,0.41-3.06,0.58-4.2,1.36
		c-0.12-0.21-0.18-0.36,0-0.65c0.44-0.18,0.89-0.88,1.36-1.03c0-0.04,0.15-0.13,0.45-0.26l0.39,0.06c0.61-0.33,1.04-0.39,1.49-0.58
		c0.26,0,0.39,0.02,0.39,0.06c0.22,0,0.32-0.06,0.32-0.19h0.52v0.06h0.39v0.07L46.25,60v0.39c-0.09,0.09-0.13,0.26-0.13,0.52
		L46.11,60.91z M37.18,69.19c-0.09,0.17-0.17,0.26-0.26,0.26c0.09-0.11-0.24-0.17-0.19-0.32c-0.32-0.31-0.49-0.75-0.84-0.71
		l-0.07-0.13h-0.06l-0.07-0.06h-0.13v-0.06h-0.13V68.1c-0.36,0.03-0.67-0.39-0.97-0.45v-0.06c-0.09,0-0.7-0.08-0.78-0.06
		c-0.84,0.14-2.04,0.75-2.78,1.1c-0.26,0.23-0.88,0.81-1.29,1.04c-0.13,0.26-0.41,0.56-0.84,0.91h-0.13c0,0.11-0.34,0.63-0.58,0.52
		c-0.16,0.31-0.64,0.48-0.97,0.78c-0.09,0.13-0.19,0.19-0.32,0.19c-0.12,0.26-0.48,0.45-0.84,0.65c-0.09-0.04-0.15-0.02-0.19,0.06
		c-0.09,0.04-0.15,0.06-0.19,0.06c-0.17,0.32-0.87,0.68-1.16,0.84c-0.83,0.88-2.71,1.75-3.75,2.26c-0.53,0.46-1.58,0.4-2.26,0.32
		c-0.04-0.04-0.19-0.07-0.45-0.07l-0.06-0.06h-0.13v-0.07h-0.13c-0.43-1.33,3.3-0.59,3.82-1.49c0.31-0.13,1.36-0.7,1.55-1.03
		c1-0.35,2.13-1.49,3.11-2.01l0.71-0.65c0.34,0,0.82-0.78,1.1-0.97c0.13,0.07,0.14-0.04,0.13-0.13h0.13
		c0.69-0.6,1.12-1.04,1.29-1.29l0.19-0.07c0,0,0-0.13,0.13-0.26c0.38-0.13,0.87-0.44,1.1-0.65c0.19-0.02,1.24-0.38,1.16-0.78
		c0.06-0.17,0.47-0.1,0.45-0.32c0.17,0.09,0.3,0.02,0.39-0.19c0.26,0,0.41-0.09,0.45-0.26c0.51,0.06,1.2-0.37,1.81-0.26
		c0,0.04,0.11,0.07,0.32,0.07c0.76,0.95,1.41,2.23,1.75,3.43L37.18,69.19z M26.38,79.86c-0.53,0.59-1.36,0.37-1.55,0.84
		c-0.2,0.09-0.6,0.44-0.91,0.45l-0.07,0.45c0,0-0.19-0.07-0.45-0.07v-0.06h-0.39c0,0,0.04-0.02,0-0.06
		c-0.25,0.06-0.36-0.29-0.58-0.26c0.04-0.04,0.04-0.09,0-0.13H22.3c-0.09-0.34,0.79-0.66,0.91-0.91l0.13-0.07
		c0.04-0.09,0.06-0.15,0.06-0.19c0.71,0.18,1.85-0.32,2.59-0.19l0.07,0.06h0.13c0,0.09,0.06,0.13,0.19,0.13V79.86z"/>
	<path fill-rule="evenodd" clip-rule="evenodd" fill="#9CCA4C" d="M20.1,76.18l0.52-0.26c1.04-0.51,2.92-1.38,3.75-2.26
		c0.29-0.16,1-0.53,1.16-0.84c0.04,0,0.11-0.02,0.19-0.06c0.04-0.09,0.11-0.11,0.19-0.06c0.36-0.19,0.72-0.38,0.84-0.65
		c0.13,0,0.24-0.07,0.32-0.19c0.34-0.3,0.81-0.47,0.97-0.78c0.24,0.12,0.58-0.41,0.58-0.52h0.13c0.43-0.34,0.71-0.65,0.84-0.91
		c0.41-0.23,1.03-0.8,1.29-1.04c0.74-0.35,1.94-0.96,2.78-1.1c0.08-0.01,0.69,0.06,0.78,0.06v0.06c0.3,0.06,0.61,0.48,0.97,0.45
		v0.07h0.13v0.06h0.13l0.07,0.06h0.06l0.07,0.13c0.35-0.04,0.52,0.4,0.84,0.71c-0.05,0.15,0.29,0.21,0.19,0.32
		c0.09,0,0.17-0.09,0.26-0.26c0.17-0.04,0.24-0.15,0.19-0.32h0.06c0.03-0.47-0.12-1.92-0.52-2.33c0-0.17-0.04-0.28-0.13-0.32
		c0-0.13-0.04-0.22-0.13-0.26c-0.09-0.22-0.15-0.32-0.19-0.32c-0.17-0.22-0.28-0.39-0.32-0.52h-0.06c0.04-0.09,0.02-0.13-0.07-0.13
		c-0.04-0.04-0.06-0.09-0.06-0.13c0.14-0.02-0.04-0.28,0.13-0.32c0-0.22,0.02-0.32,0.06-0.32c0-0.17,0.02-0.26,0.07-0.26
		c0-0.17,0.02-0.28,0.06-0.32v-0.07l0.06-0.06v-0.13h0.07v-0.13h0.06V63.1l0.13-0.06v-0.06c-0.09-0.09-0.06-0.13,0.06-0.13
		c0-0.17,0.02-0.26,0.07-0.26c0-0.22,0.02-0.32,0.06-0.32c0-0.05-0.03-0.29,0.07-0.19c0.04-0.15,0-0.5,0.19-0.52v-0.13l0.06-0.06
		V61.3c0.11-0.06,0.47-0.5,0.39-0.65l0.32-0.32c0.09-0.34,0.69-0.78,0.78-0.97V59.3c0.13-0.17,0.4-0.12,0.32-0.32
		c0.11,0,0.51-0.51,0.58-0.58c0.09,0,0.22-0.09,0.39-0.26c0.26,0,0.66-0.49,0.91-0.58c1.29-0.16,2.82-0.65,4.14-0.32l0.39,0.06v0.07
		c0.26,0,0.41,0.02,0.45,0.06c0.09,0,0.11,0.11,0.06,0.32c0.3,0.78,0.43,1.53,0.39,2.26l-0.45-0.06v-0.07h-0.39v-0.06h-0.52
		c-0.09-0.09-0.11-0.17-0.06-0.26c0.03,0,0.06-0.06,0.06-0.19c0.08-0.05,0.1-0.21,0.07-0.45c-0.13-0.13-0.22-0.17-0.26-0.13
		l-0.06-0.07h-0.07l-0.06-0.13c-0.39,0.13-0.5,0.3-0.32,0.52c-0.01,0.13,0.13,0.19,0.23,0.26c-0.45,0.14-0.44-0.37-0.42-0.65
		c0.85-0.13-0.03-0.63-0.45-0.97h-0.13v-0.06c-0.39,0.09-0.63,0.19-0.71,0.32h-0.13c0.13,0.17-0.38,0.48-0.26,0.65h-0.06l-0.07,0.78
		l-0.06,0.06h0.06v0.06c-0.09,0.04-0.11,0.15-0.06,0.32c0.1,0.04,0,0.61,0.19,0.58c-0.3,0.13-0.45,0.22-0.45,0.26
		c-0.47,0.15-0.92,0.86-1.36,1.03c-0.18,0.29-0.12,0.44,0,0.65c1.14-0.78,2.9-0.95,4.2-1.36c0.65,0.09,1.06,0.04,1.23-0.13h0.19
		v0.26c0,0-0.07,0.11-0.07,0.32c-0.04,0-0.06,0.09-0.06,0.26l-0.06,0.06v0.07c-0.13,0-0.15,0.04-0.07,0.13v0.13
		c-0.13,0-0.15,0.04-0.06,0.13v0.07l-0.13,0.06v0.06c0,0-0.06,0.15-0.06,0.32H45.5v0.13l-0.06,0.07c0,0.1-0.1,0.22-0.07,0.32h-0.06
		v0.13l-0.06,0.07v0.06l-0.07,0.07v0.06l-0.13,0.06v0.13h-0.06c-0.06,0.47-0.31,0.53-0.78,1.1c0.02,0.04-0.19,0.29-0.32,0.32v0.06
		c-0.09,0.13-0.19,0.19-0.32,0.19c-0.08,0.31-0.85,0.39-1.03,0.65c-0.6-0.02-1.12,0.58-2.01,0.13H40.4v-0.06l-0.39-0.26
		c-0.04-0.13-0.13-0.17-0.26-0.13l-0.07-0.07l-0.13,0.07v0.06L39.49,66c0.2-0.03,0.06,0.41,0.26,0.39c0.24,0.42,0.37,1.54,0.39,2.07
		c0.04,0,0.06,0.04,0.06,0.13h-0.06v1.29h-0.06v0.39h-0.07v0.45c0,0-0.06,0.15-0.06,0.32c-0.18-0.02-0.12,0.22-0.13,0.32
		c-0.09,0.17-0.19,0.67-0.26,0.91l-0.06,0.07v0.06l-0.13,0.06v0.32l-0.13,0.07v0.06l-0.06,0.07v0.13h-0.06v0.13l-0.07,0.07v0.06
		l-0.06,0.06v0.07c-0.58,0.89-0.97,1.28-1.81,2.13v0.13c-0.3,0.13-0.47,0.3-0.52,0.52l-1.62,1.49c-0.43,0.33-1.02,0.58-1.75,0.71
		v-0.07c0.24-0.24,0.94-0.95,1.03-0.97c0-0.04-0.06-0.06-0.19-0.06v-0.07l-0.65,0.26c0,0.25-0.5,0-0.45,0.26
		c-0.3,0-0.84,0.45-1.16,0.52c0.04,0.19-0.48,0.05-0.45,0.26c-0.67,0.33-1.28,0.26-1.81,0.39v0.06h-0.07L29.48,79
		c-0.06,0-1.3,0.06-1.36,0.06V79l-0.07,0.06h-0.06c0,0-0.11-0.06-0.32-0.06v-0.07c0.17,0.02,0.26-0.21,0.45-0.19
		c-0.03-0.2,0.41-0.06,0.39-0.26c0.32,0,0.62-0.41,0.84-0.45c0.53-0.49,0.48-0.31,0.97-0.78c0.48-0.13,0.95-0.66,1.29-1.03
		c0.04,0,0.19-0.13,0.45-0.39c-0.14-0.68-0.84,0.19-1.23,0.13c-0.09,0.09-0.19,0.13-0.32,0.13c-0.13,0.13-0.24,0.19-0.32,0.19
		c-0.25,0.13-0.67,0.23-0.91,0.39v0.13l-0.65,0.26c0,0.13-0.11,0.17-0.32,0.13c-0.43,0.22-0.75,0.34-0.97,0.39
		c-0.07,0.11-0.38,0.09-0.45,0.26c-1.13,0.32-5.11,1.17-6.86,0.52h-0.32l-0.07-0.13l-0.26-0.13c-0.12-0.6,0.22-0.51,0.58-0.58
		l0.07,0.06c1.27-0.07,3.58-0.22,4.72-0.84c0.28,0,0.86-0.3,1.03-0.45c0.17,0.04,0.34-0.02,0.52-0.19c0.09,0.04,0.22,0,0.39-0.13
		c-0.04-0.28,0.39-0.11,0.39-0.32c0.24-0.06,1.05-0.46,1.23-0.78c0.35-0.17,1.11-0.52,1.23-0.84c0.04,0.04,0.09,0.04,0.13,0V73.9
		c0.17,0,0.34-0.13,0.52-0.39c0.17,0.03,0.6-0.52,0.71-0.65c0.13,0.06,0.32-0.07,0.32-0.26l0.13-0.06v-0.13
		c0.04,0.16,0.97-0.8,0.97-1.1l0.13-0.06v-0.13h0.07c0-0.09-0.07-0.13-0.19-0.13c-0.84,0.48-1.87,1.17-2.65,1.62
		c-0.5,0.44-1.47,0.88-2.01,1.1c-0.84,0.32-2.02,1.14-2.85,1.29c-0.09,0.13-0.19,0.19-0.32,0.19c-0.13,0.09-0.26,0.13-0.39,0.13
		c-0.22,0.2-0.86,0.38-1.16,0.32c-0.52,0.17-1.47,0.34-2.85,0.52L20.1,76.18z M32,66.74c0.08,0.4-0.97,0.76-1.16,0.78
		c0.17-0.04,0.3-0.15,0.39-0.32c0.15-0.04,0.55-0.29,0.78-0.45L32,66.74z M23.85,81.62l0.07-0.45c0.31,0,0.7-0.36,0.91-0.45
		c0.2-0.47,1.02-0.25,1.55-0.84c0.09,0.04,0.24,0.06,0.45,0.06l0.13,0.13h0.07c0,0.09,0.11,0.11,0.32,0.07
		c0.03,0.1,0.71,0.09,0.84,0.13c0.04,0.04,0.17,0.07,0.39,0.07v0.06h1.04v0.07c-0.13,0.13-0.24,0.17-0.32,0.13
		c-0.74,0.83-2.38,1.09-3.43,1.16c-0.13,0.13-0.5,0.17-1.1,0.13v-0.06c-0.32,0.05-0.62-0.14-0.91-0.19L23.85,81.62z"/>
	<path fill-rule="evenodd" clip-rule="evenodd" fill="#FDCD9D" d="M46.89,57.55c-0.13-0.21,0.33-0.46,0.32-0.58h0.71
		c0,0,0.11,0.07,0.32,0.07c-0.11,0.1,0.09,0.05,0.13,0.06l0.06,0.07h0.07l0.06,0.06h0.13v0.13h0.13c0,0,0.02,0.11,0.06,0.19
		c0.09,0.04,0.11,0.11,0.06,0.19c0.17,0.18,0.18,0.23,0.07,0.32v0.13l-0.07,0.06c0.04,0.09,0,0.15-0.13,0.19
		c-0.17-0.17-0.32-0.24-0.45-0.19l-0.07-0.06h-0.06c-0.11-0.12-0.22-0.26-0.39-0.19v-0.13h-0.13l-0.07-0.06h-0.06l-0.06-0.07h-0.13
		v-0.06c-0.3-0.09-0.47-0.13-0.52-0.13L46.89,57.55z"/>
	<path fill-rule="evenodd" clip-rule="evenodd" fill="#F69A6F" d="M48.83,58.46c-0.03,0.07-0.08,0.24-0.07,0.32H48.7v0.13
		l-0.13,0.07c0,0.09-0.06,0.22-0.19,0.39h-0.07c0,0.16-0.08,0.29-0.19,0.39c0,0.11-0.31,0.16-0.19,0.32l-0.06,0.06
		c0.05,0.2-0.72,0.91-0.65,0.91h-0.13v0.06h-0.07l0.07-1.16l0.06-0.07c-0.11-1.01-0.34-1.58-0.26-2.33c0.04,0,0.22,0.04,0.52,0.13
		v0.06h0.13l0.06,0.07h0.06l0.07,0.06h0.13V58c0.17-0.07,0.28,0.07,0.39,0.19h0.06l0.07,0.06c0.13-0.04,0.28,0.02,0.45,0.19
		L48.83,58.46z M50.19,60.66c-0.3-0.52-0.12-0.9-0.78-1.29c0.11-0.2,0.14-0.5,0.19-0.71c0.04,0,0.07-0.09,0.07-0.26h0.32v0.07
		c0.09,0,0.19,0.06,0.32,0.19c0,0.18,0.51,0.32,0.45,0.58c0.21,0.19,0.28,0.83,0.45,1.36c-0.04,0.09-0.11,0.09-0.19,0
		C50.59,60.56,50.31,60.58,50.19,60.66L50.19,60.66z"/>
	<path fill-rule="evenodd" clip-rule="evenodd" fill="#EECEE2" d="M58.27,62.14c-0.31,0.12-0.89-0.14-1.23-0.06
		c-0.13-0.04-0.24-0.09-0.32-0.13c-0.22-1.25,1-2.53,1.75-1.23c0.07,0.44-0.19,1.01-0.19,1.42L58.27,62.14z"/>
	<path fill-rule="evenodd" clip-rule="evenodd" fill="#C97DB2" d="M56.72,61.95c0.09,0.04,0.19,0.09,0.32,0.13
		c0.34-0.07,0.92,0.19,1.23,0.06c0.35,0.72,0.59,2.12-0.78,1.88v-0.06C56.91,63.86,56.67,62.53,56.72,61.95L56.72,61.95z"/>
	<path fill-rule="evenodd" clip-rule="evenodd" fill="#CD6C42" d="M49.41,59.36c0.66,0.39,0.48,0.78,0.78,1.29
		c-0.91,0.51-1.61,1.49-2.26,2.07c-0.09,0.22-0.44,0.17-0.65,0.13l-0.06-0.07h-0.13c0-0.13-0.04-0.15-0.13-0.06H46.9
		c0-0.39,0.93-0.8,0.91-1.1l0.13-0.06v-0.07l0.19-0.06V61.3c0.18,0.13,0.33-0.36,0.32-0.39c0.09-0.19,0.59-0.51,0.52-0.71l0.07-0.06
		v-0.13h0.06v-0.13l0.07-0.06v-0.13c0.1,0.11,0.05-0.09,0.06-0.13C49.36,59.56,49.42,59.5,49.41,59.36L49.41,59.36z M46.43,63.69
		v-0.13c0.07,0.09,0.12-0.24,0.13-0.26c0.13-0.04,0.28,0.02,0.45,0.19c0.47,0.18,0.65,0.71,1.1,1.16h0.13v0.13
		c0.01,0.81-1.47,0.68-2.07,0.78v-0.07h-0.39l-0.13-0.13h-0.13c0.09-0.13,0.13-0.28,0.13-0.45l0.19-0.19h0.07
		c0.13-0.09,0.17-0.19,0.13-0.32l0.07-0.06v-0.13h0.06v-0.13h0.07v-0.13c0.13,0,0.15-0.04,0.06-0.13v-0.13
		C46.3,63.69,46.43,63.69,46.43,63.69z M35.95,86.14l-0.13,0.06v0.07l-0.06,0.06c0,0.1-0.1,0.22-0.07,0.32l-0.06,0.06v0.07
		l-0.06,0.06v0.13H35.5v0.13c0,0-0.06,0.09-0.06,0.26l-0.07,0.07v0.06l-0.13,0.13v0.13h-0.07c0.03,0.11-0.07,0.22-0.06,0.32
		l-0.07,0.06v0.13l-0.06,0.06v0.13l-0.06,0.07v0.06l-0.07,0.06v0.13l-0.06,0.07v0.13h-0.13v0.13l-0.06,0.07
		c0.04,0.09,0,0.13-0.13,0.13l-0.58-0.52v-0.26c0.21,0.02,0.29-0.37,0.26-0.52c0.22-0.07,0.32-0.31,0.26-0.52
		c0.1,0.11,0.05-0.09,0.07-0.13h0.06v-0.13l0.07-0.07v-0.06l0.06-0.07v-0.06l0.13-0.06v-0.13c0.16-0.14,0.25-0.31,0.19-0.52
		c0.26,0.13,0.44-0.23,0.71-0.13c0-0.04,0.09-0.07,0.26-0.07v0.07L35.95,86.14z M39.25,91.12c-0.17-0.13-0.24-0.26-0.19-0.39
		c0.16-0.02,0.58,0,0.71,0.07l0.06,0.06h0.13c-0.1,0.09,0.15,0.06,0.19,0.06v0.07h0.13l0.06,0.13c0.22,0.09,0.34,0.22,0.39,0.39
		C40.24,91.49,39.22,91.84,39.25,91.12L39.25,91.12z"/>
	<path fill-rule="evenodd" clip-rule="evenodd" fill="#FFCD47" d="M42.74,69.91c-0.24,0.25-0.26,0.46,0,0.71
		c-0.04,0.13,0,0.28,0.13,0.45H42.8c-0.01,0.2-0.18,0.79-0.19,0.97h-0.06c0.03,0.11-0.07,0.22-0.07,0.32
		c-0.13,0-0.15,0.04-0.06,0.13v0.13l-0.13,0.07v0.26l-0.13,0.07v0.13l-0.06,0.07v0.13l-0.06,0.06c0,0.1-0.1,0.22-0.07,0.32h-0.06
		v0.13h-0.07v0.13l-0.06,0.06v0.06l-0.13,0.07v0.13h-0.06v0.13h-0.07v0.13l-0.06,0.07c0.04,0.09,0,0.19-0.13,0.32h-0.06
		c-0.1,0.16-0.36,0.6-0.52,0.71v0.13c-0.79,0.86-0.82,0.86-1.36,1.42c0.02,0.24-0.76,0.92-0.78,1.03c-0.43,0.34-1.06,0.95-1.88,1.81
		l-0.39,0.07c-1,0.05-2.42,1.04-3.49,1.36c0-0.04-0.11-0.06-0.32-0.06c-0.13,0.13-0.22,0.19-0.26,0.19c-0.4,0.28-1.7,0.55-1.94,1.23
		c0,0.09-0.04,0.19-0.13,0.32h-0.06v0.13l-0.13,0.07v0.06l-0.06,0.06v0.13h-0.07v0.13h-0.06v0.13l-0.06,0.06v0.13h-0.07l-0.06,0.19
		c-0.09-0.09-0.15-0.11-0.19-0.06h-0.13l-0.07-0.07h-0.13c-0.81-0.49-0.1-0.88,0.13-1.42c0.06,0,0.28-0.43,0.32-0.58
		c0.21,0.03,0.68-0.49,0.84-0.65c0.13,0.04,0.24,0,0.32-0.13c0.22-0.09,0.32-0.19,0.32-0.32c0.13,0.04,0.24,0,0.32-0.13
		c0.22-0.04,0.32-0.15,0.32-0.32c0.49-0.38,1.69-0.49,2.07-0.78c0.17,0,0.28-0.04,0.32-0.13c0.66-0.32,1.83-0.8,2.2-1.42h0.13
		l0.45-0.45c0.69-0.41,1.63-1.49,1.88-2.01h0.13c0.13-0.09,0.17-0.19,0.13-0.32l0.06-0.07v-0.06l0.07-0.06v-0.13h0.06v-0.13
		l0.06-0.06v-0.07l0.13-0.06v-0.26h0.13v-0.13c0.12-0.11,0.26-0.22,0.19-0.39h0.07v-0.13l0.06-0.06v-0.07l0.13-0.06v-0.06l0.06-0.07
		v-0.13h0.07v-0.13h0.06c-0.03-0.13,0.09-0.26,0.06-0.39c0.1-0.01,0.15-0.49,0.19-0.65c0.13,0,0.07-0.51,0.26-0.58
		c-0.02-0.2,0.15-0.38,0.13-0.58h0.06v-0.39h0.07V70.3h0.06v-0.39h0.07v-0.65h0.06c0.1-0.45-0.08-1.53-0.06-1.94
		c0.25-0.04,1.21,0.22,1.42-0.13c0.2,0.11,0.53-0.17,0.45,0.26c-0.04,0-0.06,0.09-0.06,0.26h-0.07c0.06,0.34-0.29,1.13-0.06,1.36
		v0.84L42.74,69.91z M32.71,86.41c0,0,0.06,0.02,0.06-0.06c0.13-0.09,0.17-0.19,0.13-0.32c0.13-0.13,0.24-0.17,0.32-0.13v0.07
		c0.11-0.03,0.22,0.07,0.32,0.06l0.07,0.06h0.13l0.07,0.07h0.13v0.26h-0.07v0.13h-0.06c0,0.18-0.09,0.33-0.26,0.39
		c0.07,0.1-0.07,0.28-0.19,0.39v0.06l-0.06,0.07v0.06l-0.07,0.07v0.13h-0.06v0.13l-0.07,0.07v0.06l-0.06,0.06
		c0.01,0.1-0.14,0.28-0.26,0.39l0.26,0.78c0.3,0.12,0.41,0.53,0.78,0.84c0.09,0,0.14,0.37,0.32,0.32c0,0.09,0.04,0.17,0.13,0.26
		h0.06v0.07c0.2,0,0.34,0.31,0.58,0.19c0.15,0.24,0.98-0.22,1.29-0.19l0.06,0.06c0,0,1.03-0.11,1.42,0
		c-0.02,0.12,0.39,0.06,0.45,0.26h0.13v0.19c0.09-0.04,0.17,0,0.26,0.13c0,0.13,0.04,0.22,0.13,0.26c-0.15,0.06-4.15-0.05-4.27,0.13
		l-0.06-0.13l-0.06,0.07c-0.13,0.05-2.31-0.03-2.39,0.13c-0.04-0.26-0.09-0.45-0.13-0.58h0.06l0.13-0.91
		c-0.09-0.17-0.19-0.24-0.32-0.19c-0.17-0.24-0.24-0.4-0.52-0.32c0.03-0.2-0.41-0.06-0.39-0.26h-0.13c-0.34-0.33-0.4-0.62-0.26-0.97
		c0,0.04,0.02,0.04,0.07,0v-0.13l0.06-0.07v-0.06c0.51,0.04,1.14,0.08,1.29-0.19c0.26,0.06,0.25-0.53,0.45-0.52v-0.13
		c0.1,0.11,0.05-0.09,0.06-0.13h0.07v-0.13l0.13-0.06v-0.07l0.07-0.06v-0.13h0.06v-0.13h0.07v-0.13l0.06-0.07v-0.13L32.71,86.41z"/>
	<path fill-rule="evenodd" clip-rule="evenodd" fill="#F8EF74" d="M29.61,84.27l0.06-0.19h0.07v-0.13l0.06-0.06v-0.13h0.06v-0.13
		h0.07V83.5l0.06-0.06v-0.06l0.13-0.07v-0.13h0.06c0.09-0.13,0.13-0.24,0.13-0.32c0.24-0.68,1.55-0.95,1.94-1.23
		c0.04,0,0.13-0.07,0.26-0.19c0.22,0,0.32,0.02,0.32,0.06c1.07-0.31,2.49-1.31,3.49-1.36l0.39-0.07c0.82-0.86,1.44-1.47,1.88-1.81
		c0.02-0.12,0.79-0.8,0.78-1.03c0.54-0.57,0.57-0.56,1.36-1.42v-0.13c0.15-0.1,0.42-0.55,0.52-0.71h0.06
		c0.13-0.13,0.17-0.24,0.13-0.32l0.06-0.07v-0.13h0.07v-0.13h0.06v-0.13l0.13-0.07v-0.06L41.82,74v-0.13h0.07v-0.13h0.06
		c-0.03-0.11,0.07-0.22,0.07-0.32l0.06-0.06v-0.13l0.06-0.07v-0.13l0.13-0.07V72.7l0.13-0.07V72.5c-0.09-0.09-0.06-0.13,0.06-0.13
		c0-0.1,0.1-0.22,0.07-0.32h0.06c0.01-0.17,0.18-0.77,0.19-0.97h0.07c-0.13-0.17-0.17-0.32-0.13-0.45c-0.26-0.25-0.24-0.46,0-0.71
		c0.18,0.37,0.17,2.41,0.19,2.85h-0.06v0.45h-0.07l-0.26,1.81h-0.07v0.45l-0.06,0.06v0.13c-0.14-0.03-0.13,0.37-0.13,0.52
		l-0.13,0.13c0,0.1-0.1,0.22-0.06,0.32l-0.06,0.06c0.07,0.17-0.07,0.28-0.19,0.39v0.13l-0.06,0.06v0.13l-0.13,0.06v0.07l-0.06,0.06
		c0.04,0.09,0,0.19-0.13,0.32h-0.06v0.13l-0.07,0.06v0.13h-0.06l-0.26,0.39c0.04,0.09-0.34,0.47-0.32,0.52
		c-0.26,0.26-0.39,0.41-0.39,0.45c-0.34,0.26-0.78,0.71-1.29,1.36v0.06c0,0-0.22,0.15-0.52,0.45h-0.13
		c-0.39,0.39-0.6,0.65-0.65,0.78l-0.13,0.06c0.13,0.24-0.39,0.49-0.39,0.71H37.1v0.13h-0.06c-0.04,0.22-0.17,0.39-0.39,0.52v0.13
		c-0.27,0.15-1,1.18-1.36,1.04c-0.07,0.23-0.48,0.26-0.78,0.39v0.07h-0.06c-0.16-0.19-0.43-0.33-0.65-0.26l-0.07-0.06h-0.06
		l-0.06-0.07h-0.13v-0.06c-0.11,0.03-0.22-0.07-0.32-0.07c-0.11-0.12-0.22-0.27-0.39-0.26v-0.07h-0.13v-0.06h0.06v-0.13l0.13-0.06
		v-0.07c0.2-0.03,0.58-0.35,0.58-0.71c0.12-0.11,0.27-0.29,0.26-0.39l0.06-0.07h-0.19c-0.31,0.24-1.48,0.46-1.94,0.65
		c-0.04,0.09-0.13,0.13-0.26,0.13c-0.26,0.26-0.52,0.37-0.78,0.32c-0.34,0.17-0.67,0.24-0.97,0.19L29.61,84.27z"/>
	<path fill-rule="evenodd" clip-rule="evenodd" fill="#50509E" d="M20.81,80.58c-0.47,0.09-0.82,0.19-1.03,0.32
		c-0.17,0-0.26,0.32-0.45,0.19c-0.14,0.08-1.13,0.6-1.55,0.58c-0.4,0.26-1.79,0.61-2.85,0.58v-0.07c-0.84,0.52-0.62-1.16-0.65-1.36
		h0.06v-0.58l0.13-0.13c0-0.17,0-0.35,0.13-0.45v-0.07l0.06-0.06v-0.06l0.07-0.07c0,0,0.06-0.13,0.19-0.26
		c0.09,0.04,0.17,0.02,0.26-0.07v0.07h0.39c-0.07,0.1,0.38,0.13,0.45,0.32h0.06l0.07,0.06h0.13c0,0.15,0.52,0.05,0.65,0.13
		c0,0.04,0.09,0.06,0.26,0.06v0.07c0.15-0.02,0.45,0.02,0.58,0.06v0.06h0.58l0.13,0.13c0.09-0.02,0.43,0.05,0.52,0.07
		c0.21,0.11,0.85,0.08,1.1,0.19v0.06h0.45c0,0.13,0.04,0.15,0.13,0.07h0.13v0.13L20.81,80.58z M21.46,81.42
		c-0.11,0.1,0.09,0.05,0.13,0.06l0.45,0.45c-0.26,0.21-0.78,0.24-0.97,0.52c-0.34,0.22-0.65,0.34-0.91,0.39
		c0.11,0.15-0.28,0.12-0.26,0.26c-0.46,0.26-0.92,0.59-1.23,0.65c-0.04,0.18-0.49,0.51-0.71,0.52c0.03,0.2-0.42,0.06-0.39,0.26
		c-0.13,0.17-0.28,0.24-0.45,0.19c-0.47,0.22-0.73,0.37-0.78,0.45c-1.2,0.86-1.44-0.44-1.42-1.36c0.82-0.68,1.67-0.35,2.72-0.91
		c0.86-0.3,2-0.64,2.65-1.04c0.29-0.02,0.53-0.19,0.84-0.39c0.17,0.04,0.26,0.02,0.26-0.06h0.06L21.46,81.42z M24.11,83.04
		c-0.24,0.68-1.26,0.17-1.42,0.84l-0.06,0.06c-0.28,0.44-1.4,0.65-1.81,1.04c-1.36,0.76-2.44,0.95-3.49,1.55
		c-0.02-0.02-0.46,0.21-0.65,0.26c-0.43-0.15-0.18-0.26-0.19-0.52c0.1,0.11,0.05-0.09,0.06-0.13c0.34-0.13,0.54-0.22,0.58-0.26
		c0.22-0.04,0.43-0.17,0.65-0.39c0.3-0.04,0.5-0.15,0.58-0.32c0.13,0.04,0.24,0,0.32-0.13c0.26-0.09,0.43-0.19,0.52-0.32
		c0.22-0.09,0.32-0.19,0.32-0.32c0.69-0.35,1.52-0.91,2.2-1.42c0.21-0.13,0.7-0.27,0.78-0.52h0.26v0.06
		c0.16,0.09,0.58,0.32,0.78,0.26l0.07,0.06h0.13v0.07c0,0,0.17,0.09,0.39,0.13L24.11,83.04z M26.63,83.1
		c-0.16,0.26-0.36,0.72-0.65,0.84c-0.04,0.25-0.48,0.78-0.58,1.04c-0.17,0.13-0.3,0.3-0.39,0.52h-0.06
		c-0.04,0.13-0.13,0.28-0.26,0.45c0.01,0.05-0.12,0.19-0.19,0.26c0,0.13-0.36,0.32-0.32,0.45l-0.91,0.91v0.13
		c-0.39,0.3-0.91,0.8-1.55,1.49c-0.13,0-0.19-0.02-0.19-0.07h-0.07c-0.11-0.12-0.22-0.26-0.39-0.19c-0.25-0.15-0.73-0.55-0.97-0.58
		c-0.09-0.09-0.15-0.13-0.19-0.13c0.1-0.46,1.17-0.7,1.36-1.1c0.31,0.03,0.48-0.41,0.71-0.45c0.05-0.19,0.39-0.21,0.39-0.39
		c0.17,0,0.34-0.11,0.52-0.32v-0.07c1.22-0.64,2.4-2.6,3.75-2.78L26.63,83.1z"/>
	<path fill-rule="evenodd" clip-rule="evenodd" fill="#52C9F4" d="M16.67,86.79c0.18-0.05,0.63-0.28,0.65-0.26
		c1.05-0.6,2.14-0.8,3.49-1.55c0.41-0.39,1.53-0.59,1.81-1.04l0.06-0.06c0.17-0.67,1.18-0.16,1.42-0.84c0.22,0,0.32,0.02,0.32,0.06
		c-0.04,0.04-0.02,0.11,0.06,0.19c-0.17,0.12-0.57,0.43-0.78,0.45c0,0.09-0.37,0.14-0.32,0.32c-0.02-0.09-0.66,0.55-0.84,0.45
		c-0.37,0.31-1.45,1.16-2.07,1.36c0,0.09-0.11,0.17-0.32,0.26c-0.09,0.13-0.19,0.17-0.32,0.13c-0.13,0.13-0.22,0.19-0.26,0.19
		c-0.09,0.26-0.83,0.35-1.04,0.65c-0.6,0.09-0.97,0.13-1.1,0.13l-0.07-0.07h-0.13V87.1H17.1v-0.07h-0.13l-0.07-0.06h-0.06
		c0-0.11-0.22,0-0.19-0.19L16.67,86.79z M21.72,89.18c0.65-0.69,1.16-1.19,1.55-1.49v-0.13l0.91-0.91
		c-0.04-0.13,0.33-0.33,0.32-0.45c0.07-0.07,0.21-0.21,0.19-0.26c0.13-0.17,0.22-0.32,0.26-0.45h0.06c0.09-0.22,0.22-0.39,0.39-0.52
		c0.1-0.26,0.54-0.78,0.58-1.04c0.29-0.12,0.48-0.58,0.65-0.84c0.13,0,0.35-0.06,0.65-0.19c0.13,0.04,0.19,0,0.19-0.13h0.45
		c-0.17,0.32-0.66,0.89-0.71,1.16c-0.19,0.33-0.49,0.84-0.78,1.1c0.04,0.09,0,0.19-0.13,0.32h-0.06c0.05,0.15-0.32,0.5-0.32,0.58
		h-0.06v0.13h-0.07c0.06,0.18-0.34,0.59-0.39,0.71c-0.22,0.03-0.51,0.64-0.71,0.71c0,0.04-0.17,0.24-0.52,0.58v0.13
		c-0.57,0.56-0.8,0.74-1.16,0.97c0.14,0-1.09,0.35-1.29,0L21.72,89.18z"/>
	<path fill-rule="evenodd" clip-rule="evenodd" fill="#999999" d="M62.93,110.6h-1.94v-2.33l2.07-0.13l0.39-3.62h2.65v3.62h3.36
		v2.46H66.1v6.34c0,0.82,0.15,1.42,0.45,1.81c0.3,0.35,0.75,0.52,1.36,0.52c0.47,0,0.95-0.09,1.42-0.26l0.52,2.33
		c-0.95,0.3-1.85,0.45-2.72,0.45c-0.73,0-1.38-0.11-1.94-0.32c-0.56-0.26-0.99-0.6-1.29-1.03c-0.34-0.39-0.6-0.88-0.78-1.49
		c-0.13-0.56-0.19-1.23-0.19-2.01L62.93,110.6L62.93,110.6z M43.65,121.47v-13.33h3.11v13.33H43.65z M50.44,110.21
		c0.22-0.52,0.54-0.95,0.97-1.29c0.43-0.35,0.95-0.63,1.55-0.84c0.6-0.17,1.27-0.26,2.01-0.26c0.86,0,1.68,0.15,2.46,0.45
		c0.69,0.3,1.34,0.69,1.94,1.16l-1.42,1.88c-0.52-0.34-0.99-0.62-1.42-0.84c-0.52-0.22-1.01-0.32-1.49-0.32
		c-0.65,0-1.14,0.15-1.49,0.45c-0.34,0.26-0.52,0.6-0.52,1.03c0,0.47,0.28,0.86,0.84,1.16c0.3,0.17,0.95,0.45,1.94,0.84l1.36,0.52
		c0.52,0.26,0.93,0.52,1.23,0.78c0.39,0.34,0.69,0.73,0.91,1.16s0.32,0.95,0.32,1.55c0,0.56-0.11,1.1-0.32,1.62
		c-0.22,0.52-0.54,0.95-0.97,1.29c-0.47,0.39-1.01,0.69-1.62,0.91c-0.69,0.22-1.44,0.32-2.26,0.32c-0.86,0-1.77-0.17-2.72-0.52
		c-0.86-0.34-1.64-0.8-2.33-1.36l1.49-2.01c0.65,0.52,1.23,0.88,1.75,1.1c0.65,0.26,1.29,0.39,1.94,0.39c0.69,0,1.23-0.15,1.62-0.45
		c0.34-0.26,0.52-0.63,0.52-1.1c0-0.52-0.3-0.95-0.91-1.29c-0.3-0.22-0.95-0.5-1.94-0.84l-1.36-0.58c-0.47-0.26-0.88-0.52-1.23-0.78
		c-0.39-0.34-0.67-0.71-0.84-1.1c-0.22-0.43-0.32-0.93-0.32-1.49S50.24,110.67,50.44,110.21L50.44,110.21z M45.2,105.81
		c-0.56,0-1.01-0.17-1.36-0.52c-0.39-0.34-0.58-0.78-0.58-1.29s0.19-0.95,0.58-1.29c0.34-0.3,0.8-0.45,1.36-0.45
		s1.01,0.15,1.36,0.45c0.39,0.34,0.58,0.78,0.58,1.29s-0.19,0.95-0.58,1.29C46.21,105.63,45.76,105.81,45.2,105.81z M30.26,103.68
		h3.17v15.14h7.38v2.65H30.27v-17.79H30.26z M90.36,110.93c-0.39,0.22-0.88,0.63-1.49,1.23v9.32h-3.11v-13.33h2.59l0.19,1.81h0.13
		c0.65-0.69,1.29-1.21,1.94-1.55c0.78-0.39,1.57-0.58,2.39-0.58c0.73,0,1.36,0.11,1.88,0.32c0.52,0.26,0.95,0.6,1.29,1.03
		c0.3,0.47,0.54,1.04,0.71,1.68s0.26,1.4,0.26,2.26v8.34h-3.17v-7.96c0-1.08-0.15-1.85-0.45-2.33c-0.34-0.47-0.88-0.71-1.62-0.71
		c-0.56,0-1.08,0.15-1.55,0.45L90.36,110.93z M74.51,112.16c-0.22,0.43-0.34,0.93-0.39,1.49h5.89c0-0.56-0.04-1.04-0.13-1.42
		c-0.13-0.43-0.3-0.8-0.52-1.1c-0.22-0.3-0.5-0.52-0.84-0.65c-0.34-0.17-0.75-0.26-1.23-0.26c-0.39,0-0.75,0.09-1.1,0.26
		c-0.34,0.13-0.67,0.32-0.97,0.58C74.92,111.36,74.68,111.73,74.51,112.16z M74.96,108.28c0.73-0.3,1.49-0.45,2.26-0.45
		c0.91,0,1.7,0.15,2.39,0.45c0.69,0.3,1.27,0.73,1.75,1.29c0.43,0.56,0.78,1.23,1.03,2.01c0.22,0.78,0.32,1.64,0.32,2.59
		c0,0.6-0.04,1.08-0.13,1.42h-8.47c0.09,0.6,0.24,1.14,0.45,1.62c0.22,0.47,0.5,0.86,0.84,1.16c0.34,0.34,0.73,0.6,1.16,0.78
		c0.47,0.17,0.97,0.26,1.49,0.26c0.56,0,1.1-0.09,1.62-0.26c0.47-0.17,0.97-0.41,1.49-0.71l1.03,1.94
		c-0.65,0.43-1.36,0.78-2.13,1.04c-0.78,0.26-1.57,0.39-2.39,0.39c-0.95,0-1.81-0.15-2.59-0.45c-0.82-0.34-1.51-0.8-2.07-1.36
		c-0.6-0.65-1.08-1.38-1.42-2.2c-0.34-0.91-0.52-1.9-0.52-2.98s0.17-2.01,0.52-2.91c0.35-0.86,0.82-1.6,1.42-2.2
		c0.56-0.6,1.21-1.08,1.94-1.42L74.96,108.28z"/>
	<path fill="#999999" d="M126.75,1.25v125.5H1.25V1.25H126.75 M128,0H0v128h128V0L128,0z"/>
</g>
</svg>
